<svg xmlns="http://www.w3.org/2000/svg" xmlns:xlink="http://www.w3.org/1999/xlink" viewBox="0 0 858.1 280"><defs><style>.cls-1,.cls-7{fill:#fff;}.cls-1{stroke:#000;stroke-miterlimit:10;}.cls-2{fill:url(#linear-gradient);}.cls-3{fill:url(#linear-gradient-2);}.cls-4{fill:url(#linear-gradient-3);}.cls-5{fill:url(#linear-gradient-4);}.cls-6{isolation:isolate;}.cls-8{fill:none;}.cls-9{mask:url(#mask);}.cls-10{fill:#321c30;}.cls-11{fill:#3e293b;}.cls-12{fill:#4e3b4b;}.cls-13{fill:#3c2739;}.cls-14{fill:#412d3f;}.cls-15{fill:#afafaf;}.cls-16{fill:#f0b958;}.cls-17{fill:#fefefe;}.cls-18{clip-path:url(#clip-path);}.cls-19{clip-path:url(#clip-path-3);}.cls-20{fill:url(#linear-gradient-5);}.cls-21{opacity:0.1;mix-blend-mode:color-burn;}.cls-22{clip-path:url(#clip-path-5);}.cls-23{clip-path:url(#clip-path-6);}.cls-24{fill:url(#linear-gradient-6);}.cls-25{clip-path:url(#clip-path-7);}.cls-26{fill:url(#linear-gradient-7);}.cls-27{clip-path:url(#clip-path-8);}.cls-28{fill:url(#linear-gradient-8);}.cls-29{clip-path:url(#clip-path-9);}.cls-30{fill:url(#linear-gradient-9);}.cls-31{clip-path:url(#clip-path-10);}.cls-32{fill:url(#linear-gradient-10);}.cls-33{opacity:0.74;}.cls-34{clip-path:url(#clip-path-12);}.cls-35{clip-path:url(#clip-path-13);}.cls-36{fill:url(#linear-gradient-11);}.cls-37{opacity:0.51;}.cls-38{clip-path:url(#clip-path-14);}.cls-39{clip-path:url(#clip-path-15);}.cls-40{mask:url(#mask-2);}.cls-41{fill:url(#linear-gradient-12);}.cls-42{opacity:0.22;}.cls-43{clip-path:url(#clip-path-16);}.cls-44{clip-path:url(#clip-path-17);}.cls-45{fill:url(#linear-gradient-13);}.cls-46{opacity:0.35;}.cls-47{clip-path:url(#clip-path-18);}.cls-48{clip-path:url(#clip-path-19);}.cls-49{fill:url(#linear-gradient-14);}.cls-50{fill:#2b1428;}.cls-51{clip-path:url(#clip-path-20);}.cls-52{fill:url(#linear-gradient-15);}.cls-53{clip-path:url(#clip-path-22);}.cls-54{fill:url(#linear-gradient-16);}.cls-55{clip-path:url(#clip-path-24);}.cls-56{fill:url(#linear-gradient-17);}.cls-57{clip-path:url(#clip-path-26);}.cls-58{fill:url(#linear-gradient-18);}.cls-59{clip-path:url(#clip-path-28);}.cls-60{fill:url(#linear-gradient-19);}.cls-61{clip-path:url(#clip-path-29);}.cls-62{fill:url(#linear-gradient-20);}.cls-63{opacity:0.58;}.cls-64{clip-path:url(#clip-path-31);}.cls-65{clip-path:url(#clip-path-32);}.cls-66{mask:url(#mask-3);}.cls-67{fill:url(#linear-gradient-21);}.cls-68{clip-path:url(#clip-path-33);}.cls-69{clip-path:url(#clip-path-34);}.cls-70{mask:url(#mask-4);}.cls-71{fill:url(#linear-gradient-22);}.cls-72{opacity:0.7;}.cls-73{clip-path:url(#clip-path-35);}.cls-74{clip-path:url(#clip-path-36);}.cls-75{mask:url(#mask-5);}.cls-76{fill:url(#linear-gradient-23);}.cls-77{mask:url(#mask-6);}.cls-78{mask:url(#mask-7);}</style><linearGradient id="linear-gradient" x1="121.6" y1="542.66" x2="122.16" y2="542.66" gradientTransform="matrix(44.12, 0, 0, -44.12, -5149.19, 24155.01)" gradientUnits="userSpaceOnUse"><stop offset="0"/><stop offset="0.01"/><stop offset="0.29" stop-color="#626262"/><stop offset="0.56" stop-color="#b6b6b6"/><stop offset="0.75" stop-color="#ebebeb"/><stop offset="0.84" stop-color="#fff"/><stop offset="1" stop-color="#fff"/></linearGradient><linearGradient id="linear-gradient-2" x1="116.54" y1="536.19" x2="117.1" y2="536.19" gradientTransform="matrix(512.44, 0, 0, -512.44, -59572.06, 274841.48)" gradientUnits="userSpaceOnUse"><stop offset="0" stop-color="#fff"/><stop offset="0.02" stop-color="#f7f7f7"/><stop offset="0.18" stop-color="#b6b6b6"/><stop offset="0.34" stop-color="#7f7f7f"/><stop offset="0.49" stop-color="#515151"/><stop offset="0.64" stop-color="#2e2e2e"/><stop offset="0.77" stop-color="#151515"/><stop offset="0.9" stop-color="#050505"/><stop offset="0.99"/><stop offset="1"/></linearGradient><linearGradient id="linear-gradient-3" x1="117.43" y1="535.8" x2="117.99" y2="535.8" gradientTransform="matrix(-514.39, 0, 0, 514.39, 60536.52, -275521.34)" xlink:href="#linear-gradient-2"/><linearGradient id="linear-gradient-4" x1="130.33" y1="530.19" x2="130.89" y2="530.19" gradientTransform="matrix(-17.36, 0, 0, 17.36, 2407.81, -9119.97)" gradientUnits="userSpaceOnUse"><stop offset="0" stop-color="#fff"/><stop offset="0.11" stop-color="#e4e4e4"/><stop offset="0.31" stop-color="#b7b7b7"/><stop offset="0.51" stop-color="#949494"/><stop offset="0.69" stop-color="#7b7b7b"/><stop offset="0.86" stop-color="#6b6b6b"/><stop offset="0.99" stop-color="#666"/><stop offset="1" stop-color="#666"/></linearGradient><mask id="mask" x="285.5" y="-37.46" width="621" height="294" maskUnits="userSpaceOnUse"><rect class="cls-1" x="286" y="-36.96" width="620" height="293"/></mask><clipPath id="clip-path"><rect class="cls-8" width="280" height="280"/></clipPath><clipPath id="clip-path-3"><path class="cls-8" d="M3.23,140.14A136.64,136.64,0,1,0,139.87,3.5,136.64,136.64,0,0,0,3.23,140.14"/></clipPath><linearGradient id="linear-gradient-5" x1="117.48" y1="536.53" x2="118.04" y2="536.53" gradientTransform="matrix(0, -646.39, -646.39, 0, 346945.86, 76283.81)" gradientUnits="userSpaceOnUse"><stop offset="0" stop-color="#f3dc53"/><stop offset="0.16" stop-color="#f3dc53"/><stop offset="0.33" stop-color="#f1c856"/><stop offset="0.68" stop-color="#ed945e"/><stop offset="0.92" stop-color="#ea6d64"/><stop offset="1" stop-color="#ea6d64"/></linearGradient><clipPath id="clip-path-5"><rect class="cls-8" x="-39.28" y="-21.96" width="401.11" height="253.19"/></clipPath><clipPath id="clip-path-6"><path class="cls-8" d="M-26.41,231.23c31.84-36.88,144.91-74.68,190.9-58.45s186.9-6.67,194.76-21.09S354.56-22,354.56-22L-39.28-10Z"/></clipPath><linearGradient id="linear-gradient-6" x1="117.52" y1="536.55" x2="118.08" y2="536.55" gradientTransform="matrix(0, -431.25, -431.25, 0, 231549.39, 50896.23)" gradientUnits="userSpaceOnUse"><stop offset="0" stop-color="#7a2e3a"/><stop offset="0.15" stop-color="#612634"/><stop offset="0.33" stop-color="#491e2f"/><stop offset="0.52" stop-color="#38182b"/><stop offset="0.74" stop-color="#2e1529"/><stop offset="1" stop-color="#2b1428"/></linearGradient><clipPath id="clip-path-7"><path class="cls-8" d="M235.51,157.68a.57.57,0,0,1-.7,0c-1.08-.82-4.46-3-8-1.47-.46.19-.33.77.18.81,2.13.14,5.92.79,7.78,3.49a.55.55,0,0,0,.86,0,8.49,8.49,0,0,1,7.28-3.35c.52,0,.73-.57.27-.79a6.46,6.46,0,0,0-2.94-.73,7,7,0,0,0-4.72,2"/></clipPath><linearGradient id="linear-gradient-7" x1="97.63" y1="522.75" x2="98.19" y2="522.75" gradientTransform="matrix(0, 14.37, 14.37, 0, -7278.54, -1252.52)" xlink:href="#linear-gradient-6"/><clipPath id="clip-path-8"><path class="cls-8" d="M210.14,164.38a.45.45,0,0,1-.55,0c-.86-.65-3.55-2.39-6.38-1.18a.34.34,0,0,0,.14.65c1.7.11,4.72.63,6.2,2.78a.43.43,0,0,0,.68,0A6.78,6.78,0,0,1,216,164c.42,0,.58-.45.22-.63a5.17,5.17,0,0,0-2.34-.58,5.6,5.6,0,0,0-3.76,1.59"/></clipPath><linearGradient id="linear-gradient-8" x1="92.97" y1="521.11" x2="93.53" y2="521.11" gradientTransform="matrix(0, 11.44, 11.44, 0, -5749.45, -904.38)" xlink:href="#linear-gradient-6"/><clipPath id="clip-path-9"><path class="cls-8" d="M215.37,148.39a.53.53,0,0,1-.65,0c-1-.75-4.13-2.78-7.41-1.36-.42.18-.3.71.16.75,2,.13,5.49.73,7.2,3.23a.51.51,0,0,0,.8,0,7.84,7.84,0,0,1,6.73-3.1c.49,0,.68-.53.26-.74a6.15,6.15,0,0,0-2.72-.67,6.52,6.52,0,0,0-4.37,1.85"/></clipPath><linearGradient id="linear-gradient-9" x1="97.07" y1="522.47" x2="97.63" y2="522.47" gradientTransform="matrix(0, 13.29, 13.29, 0, -6730.74, -1148.53)" xlink:href="#linear-gradient-6"/><clipPath id="clip-path-10"><path class="cls-8" d="M19.42,204.71a136.69,136.69,0,0,0,240.9,0Z"/></clipPath><linearGradient id="linear-gradient-10" x1="118.7" y1="537.73" x2="119.26" y2="537.73" gradientTransform="matrix(0, -155.76, -155.76, 0, 83895.14, 18780.8)" gradientUnits="userSpaceOnUse"><stop offset="0" stop-color="#e75352"/><stop offset="0.51" stop-color="#e75352"/><stop offset="0.6" stop-color="#e75352"/><stop offset="1" stop-color="#ea6e64"/></linearGradient><clipPath id="clip-path-12"><rect class="cls-8" x="86.36" y="204.51" width="278.12" height="44.28"/></clipPath><clipPath id="clip-path-13"><path class="cls-8" d="M364.48,248.75A172.32,172.32,0,0,1,320,243.58c-15.54-3.86-5.85-8.55-15.27-10.41s-44.3-.12-64.44.68-82.34-12.37-112-15.72.84-10.07.84-10.07-50.33,1.1-41.89-3.35l277.16-.2Z"/></clipPath><linearGradient id="linear-gradient-11" x1="117.87" y1="537.6" x2="118.43" y2="537.6" gradientTransform="matrix(216.03, 0, 0, -216.03, -25319.4, 116366.42)" gradientUnits="userSpaceOnUse"><stop offset="0" stop-color="#e5464b"/><stop offset="0.62" stop-color="#e5464b"/><stop offset="0.63" stop-color="#e5474b"/><stop offset="1" stop-color="#ea6e64"/></linearGradient><clipPath id="clip-path-14"><rect class="cls-8" x="177.69" y="204.51" width="89.46" height="12.24"/></clipPath><clipPath id="clip-path-15"><path class="cls-8" d="M177.69,204.62c10.4,7.45,26.13,12.13,44.46,12.13s34.61-4.8,45-12.24Z"/></clipPath><mask id="mask-2" x="177.57" y="203.6" width="89.71" height="14.06" maskUnits="userSpaceOnUse"><rect class="cls-2" x="215.85" y="165.84" width="13.15" height="89.58" transform="translate(9.53 430.89) rotate(-89.42)"/></mask><linearGradient id="linear-gradient-12" x1="121.6" y1="542.66" x2="122.16" y2="542.66" gradientTransform="matrix(44.12, 0, 0, -44.12, -5149.19, 24155.01)" gradientUnits="userSpaceOnUse"><stop offset="0" stop-color="#f3dc52"/><stop offset="0.01" stop-color="#f3dc52"/><stop offset="0.84" stop-color="#f3dc53"/><stop offset="1" stop-color="#f3dc53"/></linearGradient><clipPath id="clip-path-16"><rect class="cls-8" x="-36.59" y="264.18" width="128.15" height="27.75"/></clipPath><clipPath id="clip-path-17"><path class="cls-8" d="M91.56,291.93s-35.49-8.16-41.66-9.14-22.74-2-22.74-2-3.4-4.57-8.71-5.55S-.9,274.7-.9,274.7l-5.73-3.4-4.46-.29s-8.32-6.1-10.21-6.3-15.29-.53-15.29-.53v27.75Z"/></clipPath><linearGradient id="linear-gradient-13" x1="119.74" y1="537.46" x2="120.3" y2="537.46" gradientTransform="matrix(96.39, 0, 0, -96.39, -11528.1, 52083.64)" xlink:href="#linear-gradient-6"/><clipPath id="clip-path-18"><rect class="cls-8" x="-36.59" y="188.73" width="78.89" height="14.49"/></clipPath><clipPath id="clip-path-19"><path class="cls-8" d="M-36.59,203.22H42.3S30,198.56,28.44,198.56H15.65S4.45,195,.19,193.9s-16.52,0-16.52,0-7.47-4.38-9.6-4.93-10.66,0-10.66,0Z"/></clipPath><linearGradient id="linear-gradient-14" x1="117.96" y1="537.64" x2="118.52" y2="537.64" gradientTransform="matrix(126.21, 0, 0, -126.21, -14926.58, 68052.4)" gradientUnits="userSpaceOnUse"><stop offset="0" stop-color="#2b1428"/><stop offset="0.26" stop-color="#2e1529"/><stop offset="0.48" stop-color="#38182b"/><stop offset="0.67" stop-color="#491e2f"/><stop offset="0.85" stop-color="#612634"/><stop offset="1" stop-color="#7a2e3a"/></linearGradient><clipPath id="clip-path-20"><path class="cls-8" d="M208.78,258.15q3.79-2.22,7.42-4.67c-6.19-.9-12.29-1.32-12.29-1.32a62,62,0,0,0,4.87,6"/></clipPath><linearGradient id="linear-gradient-15" x1="113.57" y1="536.14" x2="114.13" y2="536.14" gradientTransform="matrix(0, 101.62, 101.62, 0, -54273.02, -11310.59)" xlink:href="#linear-gradient-6"/><clipPath id="clip-path-22"><path class="cls-8" d="M364.48,263.79s-26.72,2.73-33.35,5-5.79,5.92-5.79,5.92l-18.23,2s-7.51,1.25-8.1,3.47-19.65,2.66-25.45,2.68-45.15,9.08-45.15,9.08H364.48Z"/></clipPath><linearGradient id="linear-gradient-16" x1="115.25" y1="535.51" x2="115.81" y2="535.51" gradientTransform="matrix(0, 208.54, 208.54, 0, -111380.4, -23825.8)" xlink:href="#linear-gradient-6"/><clipPath id="clip-path-24"><path class="cls-8" d="M92.29,236.88a16.7,16.7,0,0,0-4,.64c-.69.36-1.66,3-1.66,3s4.28,2.32,5.08,2.32,13.75,1.95,12.57,0c0,0-4.72-8.55-8.61-9.06a6.22,6.22,0,0,0-.71-.05c-3.13,0-2.71,3.16-2.71,3.16"/></clipPath><linearGradient id="linear-gradient-17" x1="105.56" y1="531.84" x2="106.12" y2="531.84" gradientTransform="matrix(0, 23.67, 23.67, 0, -12493.87, -2267.94)" xlink:href="#linear-gradient-6"/><clipPath id="clip-path-26"><path class="cls-8" d="M283.91,255.76c-2.69-.78-14.26-6-18.18-6.32s-17.47,3.52-18.9,4,10,3.4,15,3.66,24.33-.67,22.1-1.32"/></clipPath><linearGradient id="linear-gradient-18" x1="134.3" y1="559.63" x2="134.86" y2="559.63" gradientTransform="matrix(0, -13.76, -13.76, 0, 7965.14, 2104.82)" xlink:href="#linear-gradient-6"/><clipPath id="clip-path-28"><path class="cls-8" d="M244.23,249.18c-1.2-1.56-5.13-4.19-5.93-4.21s-4.19-.16-4.19-.16l-1.66,2s-2.78-.46-3.79-.06a13.72,13.72,0,0,0-2.38,1.41,93.44,93.44,0,0,0,9.26,1.49c2,0,8.69-.47,8.69-.47"/></clipPath><linearGradient id="linear-gradient-19" x1="143.18" y1="571.79" x2="143.74" y2="571.79" gradientTransform="matrix(8.59, 0, 0, -8.59, -996.68, 5157.31)" xlink:href="#linear-gradient-6"/><clipPath id="clip-path-29"><path class="cls-8" d="M141.25,213.78l-5.84,5-12.25,3.64s-7.78,5.44-9,7,28,5.16,35.6,5.6c22.17,1.28,57.76-1.13,57.76-1.13l-16.92-5-12-3c.58-3.23-2-4.7-2-5.94s-7-5.29-7-5.29a4.31,4.31,0,0,0-2.33-5.19,5.38,5.38,0,0,0-2.32-.37c-6.8,0-23.74,4.65-23.74,4.65"/></clipPath><linearGradient id="linear-gradient-20" x1="121.72" y1="541.21" x2="122.28" y2="541.21" gradientTransform="matrix(0, -46.82, -46.82, 0, 25497.99, 5933.82)" xlink:href="#linear-gradient-6"/><clipPath id="clip-path-31"><rect class="cls-8" x="149.18" y="41.64" width="286.97" height="70.99"/></clipPath><clipPath id="clip-path-32"><path class="cls-8" d="M436.15,42.64v69a1.12,1.12,0,0,1-1.31,1L150.23,85.84a1.07,1.07,0,0,1-1-1V79.5a1.06,1.06,0,0,1,1-1L434.79,41.65a1.13,1.13,0,0,1,1.36,1"/></clipPath><mask id="mask-3" x="149.18" y="41.56" width="286.97" height="71.13" maskUnits="userSpaceOnUse"><rect class="cls-3" x="149.18" y="41.56" width="286.97" height="71.13"/></mask><linearGradient id="linear-gradient-21" x1="116.54" y1="536.19" x2="117.1" y2="536.19" gradientTransform="matrix(512.44, 0, 0, -512.44, -59572.06, 274841.48)" gradientUnits="userSpaceOnUse"><stop offset="0" stop-color="#f3dc52"/><stop offset="0.99" stop-color="#f3dc51"/><stop offset="1" stop-color="#f3dc51"/></linearGradient><clipPath id="clip-path-33"><rect class="cls-8" x="-155.75" y="54.25" width="288.06" height="63.95"/></clipPath><clipPath id="clip-path-34"><path class="cls-8" d="M-155.75,117.2V55.25c0-.6.81-1.07,1.72-1L131,78.53c.76.06,1.33.48,1.33,1V84.9c0,.49-.53.9-1.26,1l-285,32.3c-.93.1-1.78-.37-1.78-1"/></clipPath><mask id="mask-4" x="-155.75" y="54.18" width="288.06" height="64.11" maskUnits="userSpaceOnUse"><rect class="cls-4" x="-155.75" y="54.18" width="288.06" height="64.11"/></mask><linearGradient id="linear-gradient-22" x1="117.43" y1="535.8" x2="117.99" y2="535.8" gradientTransform="matrix(-514.39, 0, 0, 514.39, 60536.51, -275521.3)" xlink:href="#linear-gradient-21"/><clipPath id="clip-path-35"><rect class="cls-8" x="135.92" y="78.72" width="9.72" height="7.51"/></clipPath><clipPath id="clip-path-36"><path class="cls-8" d="M144.21,86.23h-6.87a1.43,1.43,0,0,1-1.42-1.43V80.14a1.43,1.43,0,0,1,1.42-1.42h6.87a1.43,1.43,0,0,1,1.43,1.42V84.8a1.43,1.43,0,0,1-1.43,1.43"/></clipPath><mask id="mask-5" x="135.92" y="78.72" width="9.72" height="7.51" maskUnits="userSpaceOnUse"><rect class="cls-5" x="135.92" y="78.72" width="9.72" height="7.51"/></mask><linearGradient id="linear-gradient-23" x1="130.33" y1="530.19" x2="130.89" y2="530.19" gradientTransform="matrix(-17.36, 0, 0, 17.36, 2407.81, -9119.97)" gradientUnits="userSpaceOnUse"><stop offset="0" stop-color="#f3dc51"/><stop offset="0.99" stop-color="#f3dc52"/><stop offset="1" stop-color="#f3dc52"/></linearGradient><mask id="mask-6" x="276.09" y="-87.92" width="438.9" height="408.28" maskUnits="userSpaceOnUse"><rect x="276.09" y="-87.92" width="438.9" height="408.28"/><g class="cls-6"><path class="cls-7" d="M567.24,140A118.82,118.82,0,1,1,448.43,21.18,118.81,118.81,0,0,1,567.24,140"/></g></mask><mask id="mask-7" x="285.5" y="437.15" width="621" height="294" maskUnits="userSpaceOnUse"/></defs><title>Artboard 1</title><g class="cls-6"><g id="Layer_3" data-name="Layer 3"><g class="cls-9"><g id="Layer_1_copy" data-name="Layer 1 copy"><path class="cls-10" d="M747.07,181c4,11.26,8.12,22.46,11.79,33.82,1.31,4,2.86,6.84,7.57,6.5,1.64-.12,2.22.64,2.12,2.36-.17,3.07-.12,6.16,0,9.24.05,1.36-.43,1.64-1.69,1.64q-16.37-.07-32.72,0c-1.35,0-1.68-.41-1.65-1.69.08-3.16.13-6.33,0-9.49-.07-1.52.51-2,1.86-2.24,1.74-.34,4.28.2,5-1.37.54-1.21-.73-3.25-1.24-4.9-.81-2.62-1.74-5.2-2.44-7.85-.33-1.23-.93-1.52-2.1-1.51q-15.48,0-31,0c-1.36,0-1.82.5-2.18,1.74-1.08,3.74-2.26,7.47-3.55,11.15-.55,1.58-.14,2,1.41,2.22,5.31.88,5.3.95,5.3,6.24,0,2-.07,4,0,6,.06,1.25-.23,1.73-1.61,1.72q-16.86-.09-33.73,0c-1.24,0-1.75-.23-1.71-1.62.1-3.32.07-6.66,0-10,0-1,.26-1.59,1.34-1.5,5.5.46,7.23-2.95,8.68-7.54,3.39-10.67,7.29-21.18,11-31.76.14-.38.35-.74.53-1.11a3,3,0,0,1,2.05-.75c5.48-.07,10.95-.14,16.42,0a3.24,3.24,0,0,1,1.19.32c1.38,1.13.59,2.43.23,3.65-1.32,4.52-1.34,4.51,3.35,4.51,5,0,10,0,15,0,2.73,0,2.85-.24,2-2.91-.46-1.56-1.37-3.1-.43-4.8a3.32,3.32,0,0,1,2.53-.82c4.71-.07,9.42-.05,14.13,0A4,4,0,0,1,747.07,181Z"/><path class="cls-11" d="M388.11,181c7.9,11.22,16,22.32,23.58,33.72,2.46,3.67,5.25,5.5,9.53,5.88s4.28.6,4.28,4.8c0,2.59,0,5.17,0,7.75,0,1.08-.29,1.43-1.4,1.42q-19.62,0-39.23,0c-1.1,0-1.43-.32-1.41-1.41.06-3.42.12-6.84,0-10.25-.08-1.77,1.17-1.52,2.1-1.69,4.26-.74,4.29-.74,1.93-4.32-5.72-8.69-11.48-17.34-17.18-26a2.47,2.47,0,0,0-2.39-1.35c-2.91.09-5.83.09-8.74,0-1.27,0-1.72.26-1.71,1.63q.09,13.38,0,26.74c0,1.27.41,1.68,1.61,1.88,2.62.43,5.21,1.08,7.82,1.55,1.15.2,1.68.57,1.64,1.88q-.17,4.86,0,9.74c.05,1.37-.43,1.64-1.7,1.64q-19.86-.07-39.73,0c-1.38,0-1.66-.46-1.63-1.71.08-3.17.15-6.34,0-9.5-.09-1.6.63-2,1.91-2.18,2.38-.41,4.73-1,7.11-1.35,1.61-.23,2.09-.87,2.08-2.55-.07-12.08,0-24.16,0-36.23.94-.92,2.14-.81,3.29-.82q22.45,0,44.9,0A5.23,5.23,0,0,1,388.11,181Z"/><path class="cls-12" d="M388.11,181l-51.53.06c0-11.83-.15-23.65,0-35.47,0-2.41-.78-3.16-2.9-3.44s-4.4-.83-6.61-1.22a1.63,1.63,0,0,1-1.6-2c.11-3.25.09-6.5,0-9.75,0-1.29.33-1.69,1.66-1.68q19.86.06,39.72,0c1.33,0,1.69.4,1.66,1.69-.08,3.33-.07,6.66,0,10,0,1.17-.43,1.6-1.52,1.79-2.62.46-5.2,1.12-7.83,1.5-1.42.21-1.71.84-1.7,2.14q.07,12.62,0,25.23c0,1.26.28,1.91,1.64,1.68h.25c5.7,1,9.33-1.06,12.34-6.26,4.7-8.1,10.38-15.64,15.77-23.6-.87-.21-1.55-.43-2.24-.54-3.72-.59-3.73-.58-3.73-4.24,0-2.5.11-5,0-7.5-.09-1.62.51-1.9,2-1.89q19.11.09,38.22,0c1.33,0,1.92.22,1.87,1.73-.11,3.25-.09,6.5,0,9.74,0,1.15-.31,1.61-1.46,1.77-2.63.36-5.24.92-7.87,1.29a5.1,5.1,0,0,0-3.66,2.22c-7,9.5-14.13,18.94-21.2,28.4-.2.27-.4.54-.61.8-1,1.25-2.64,2.39-2.92,3.8C385.55,178.53,387.69,179.47,388.11,181Z"/><path class="cls-12" d="M443.58,181.05c0-12-.1-24,0-36,0-1.85-.45-2.65-2.35-2.86-2.3-.26-4.56-.89-6.86-1.27-1.34-.22-2-.71-1.88-2.25a79.63,79.63,0,0,0,0-8.74c-.12-2,.46-2.46,2.43-2.46,24.74.08,49.49.05,74.23.05,2,0,4,0,6,0,1.11,0,1.41.35,1.41,1.43q0,13.11,0,26.24c0,1.14-.43,1.38-1.46,1.37-4.41,0-8.83-.08-13.24,0-1.52,0-1.75-.62-1.8-1.91-.12-3.08-.47-6.15-.59-9.22-.06-1.49-.6-1.94-2.1-1.93q-15.49.09-31,0c-1.32,0-1.89.22-1.88,1.73.08,8.17.1,16.33,0,24.49,0,1.7.65,1.84,2,1.83,10.58,0,21.16,0,31.74-.07,1.87,0,2.47.43,2.31,2.32-.19,2.4-.09,4.82-.12,7.24-.94.91-2.15.79-3.3.79q-25.12,0-50.24,0C445.73,181.84,444.52,182,443.58,181.05Z"/><path class="cls-13" d="M443.58,181h56.84c.31,6.49.31,6.49-6.2,6.49-9.24,0-18.49,0-27.73,0-1.67,0-2,.48-2,2.08q.12,13,0,26c0,1.69.52,2,2.09,2q15.24-.1,30.48,0c1.56,0,2.16-.38,2.22-2,.14-3.15.54-6.3.67-9.45.05-1.33.5-1.65,1.75-1.63,4.41.07,8.83.09,13.24,0,1.39,0,1.62.49,1.62,1.72q-.07,13.37,0,26.73c0,1.41-.51,1.61-1.73,1.61q-40.35,0-80.69,0c-1.37,0-1.67-.43-1.64-1.7.08-3.33.07-6.66,0-10,0-1.19.26-1.76,1.58-1.94,2.47-.34,4.88-1,7.35-1.38,1.65-.22,2.14-.86,2.13-2.54-.08-11.57,0-23.15,0-34.73C443.51,181.83,443.55,181.41,443.58,181Z"/><path class="cls-10" d="M843.16,181c9.2,5.27,14.39,13,14.9,23.77s-3.54,19.08-12.68,24.88c-6.94,4.41-14.64,6.17-22.72,6.59-11.23.59-22.06-1-32.16-6.22-1-.54-2-1.14-3-1.7-6.17-3.42-10.55-7.64-9.08-15.72.72-3.95.18-8.14.1-12.22,0-1.35.26-1.88,1.75-1.85,4.41.1,8.82.09,13.24,0,1.38,0,1.87.44,2,1.79.44,3.71,1.1,7.4,1.52,11.11a4.81,4.81,0,0,0,2.79,4,37.21,37.21,0,0,0,26.61,3.45c5.41-1.31,9.21-4.72,9.92-10.57.69-5.65-1.51-10.08-6.36-13.11-4.26-2.66-9-4.24-13.76-5.7-7.15-2.19-14.25-4.52-20.76-8.3.91-1.16,2.23-1,3.44-1,13.46,0,26.91,0,40.37,0A11.26,11.26,0,0,1,843.16,181Z"/><path class="cls-13" d="M560.42,181q0,13.86.08,27.72c0,6.3,2.47,8.76,8.75,8.77,5,0,10-.13,15,0,4.35.15,8-2.19,8.44-7.15.37-4.35,4-6.31,9.61-5.88,3.61.27,6.19,3.22,6.21,7.14q0,7.86,0,15.73c0,4.32-2.85,7.13-7.22,7.13q-32.85,0-65.69,0c-3.71,0-6.62-2.37-7.07-5.69-.54-4.06,1.36-7.12,5.16-8.26,4.19-1.27,5.79-3.35,5.81-7.83.06-10.57.07-21.15.09-31.72a3.63,3.63,0,0,1,2.81-.79q7.61,0,15.23,0A3.66,3.66,0,0,1,560.42,181Z"/><path class="cls-14" d="M787.1,175.68c-12-9.42-11.92-29.38,0-39.8,7.47-6.5,16.34-9.47,26.05-10,15.39-.94,29.53,2.57,41.83,12.29a3.31,3.31,0,0,1,1.51,2.89q-.12,9.38,0,18.74c0,1.38-.32,1.86-1.77,1.83-4.25-.1-8.5-.09-12.74,0-1.38,0-1.85-.42-2.06-1.77-.58-3.69-1.34-7.36-2-11-.22-1.17-.51-2.19-1.8-2.73-8.62-3.58-17.46-4.73-26.59-2.45a14.12,14.12,0,0,0-5.66,3.07,11.05,11.05,0,0,0,.68,17.79c5.38,3.76,11.62,5.65,17.79,7.65.78.25,1.54.56,2.3.85a2,2,0,0,1-2,1.26c-4.16,0-8.14,1.5-12.35,1.16-6.14-.49-12.24.41-18.34,1A11.37,11.37,0,0,1,787.1,175.68Z"/><path class="cls-12" d="M622.3,181.05q.44-17.51.85-35c0-1.47.18-2.89-1.35-4-1.22-.87-.56-2.06.24-3,0-.12.05-.24.07-.36a2.39,2.39,0,0,1,.42-.58c2.32-2.39,1.4-5,.58-7.66-.5-.41-1-.79-1.5-1.24-1-1-1.18-2.37,0-3,4.74-2.46,9.17-5.68,14.55-6.77a9.81,9.81,0,0,1,6.5,1c3,1.53,6,3.1,9.06,4.65,3.23,1.68,3.3,2.92.28,5-1.25,3-1.41,5.94.48,8.76,1.28.84,1.72,2.17.64,3.13-1.38,1.22-1.29,2.59-1.26,4.07q.42,17.46.85,34.92c-1.68,1.22-3.61.57-5.44.71q-9.51.17-19,0C626.25,181.6,624.15,182.35,622.3,181.05Z"/><path class="cls-12" d="M539.58,183s-.05-24.05-.08-32.46c0-5.33-1.27-7.06-6.32-8.73-3.48-1.16-5.24-4.34-4.65-8.36a6.77,6.77,0,0,1,6.64-5.67q15.36-.06,30.74,0a6.58,6.58,0,0,1,6.58,6.49c.07,2.64.41,5.37-1.77,7.51a7.56,7.56,0,0,1-3.66,2c-4.82,1.11-6.52,3.26-6.55,8.24,0,7.58-.06,31-.09,31H539.58Z"/><path class="cls-15" d="M412.27,67.07c8.72-6.14,13.63-5.81,19.09,1.26.52,0,.67-.45.91-.76C435.85,63,440,62,445.39,63.5c4.19,1.17,7,5.67,7.07,11s.13,10.5,0,15.74c-.05,2,.67,2.75,2.52,2.78s2.73.65,2.59,2.7c-.1,1.44-.56,1.83-1.93,1.81-4.41-.06-8.83,0-13.24,0-.9,0-2,.17-1.88-1.28.07-1.24-.53-3.05,1.49-3.06,3.45,0,3.7-2,3.53-4.69-.3-4.89.41-9.82-.49-14.7-.55-3-2.06-4.76-4.67-5.17-2.81-.44-5.31.2-7,2.7a10.52,10.52,0,0,0-1.84,6.11c0,4.5.15,9-.06,13.49-.11,2.24.77,3,2.74,3.09,1.54.07,2.41.59,2.38,2.42,0,1.62-.48,2.17-2.13,2.12-3.91-.1-7.83,0-11.74,0-1,0-2.28.33-2.2-1.47.05-1.32-.27-2.92,1.71-2.92,2.93,0,3.52-1.45,3.35-4.08-.36-5.31.36-10.65-.51-16-.78-4.77-3.86-6-7.3-5.93-4.58.08-7.24,2.89-7.24,7.11,0,4.92.11,9.84-.05,14.74-.07,2,.69,2.87,2.58,3,1.41.09,2.55.31,2.53,2.26,0,1.69-.41,2.35-2.23,2.29-3.91-.13-7.82,0-11.74,0-.93,0-2.15.34-2.09-1.31.05-1.27-.43-3.06,1.57-3,3.4.08,3.54-1.83,3.48-4.46q-.23-8.86,0-17.74c.06-2.08-.74-2.85-2.61-3-1.44-.09-2.51-.37-2.5-2.29,0-1.73.49-2.37,2.26-2.24,2.07.14,4.16,0,6.24,0C411.69,63.54,411.69,63.54,412.27,67.07Z"/><path class="cls-14" d="M628.07,181h19.36a4.07,4.07,0,0,1,.64,3.53,56.42,56.42,0,0,0-.38,7.9c-.25,11.86-1.46,23.69-1,35.57.12,3.25-1.5,5.28-4.7,6H634c-4.28-1.52-4.53-2.1-4.77-6.8-.47-9-.17-18-1.15-26.9a159,159,0,0,1-.79-16A4.43,4.43,0,0,1,628.07,181Z"/><path class="cls-15" d="M843.87,97.86c-2.6-.38-2.6-.38-3.14-4-.75-.34-1,.36-1.37.72-4,4.13-8.89,4.71-14,2.77s-6.56-6.42-6.81-11.27c-.27-5.07-.13-10.16,0-15.24,0-1.72-.38-2.72-2.24-2.77-2.25-.06-1.72-1.74-1.8-3.09-.1-1.82,1.22-1.41,2.23-1.43,2.25,0,4.5.09,6.75,0,1.68-.09,2.11.54,2.09,2.15-.09,5.49,0,11,0,16.49a38,38,0,0,0,.34,5.22c.39,2.63,1.06,5,4,5.67,3.43.78,6.6.21,9.1-2.5a5.86,5.86,0,0,0,1.56-4.32c-.1-5-.18-10,0-15,.09-2.21-.75-3.13-2.71-3.1-2.34,0-2.42-1.32-2.38-3.09,0-2.21,1.65-1.4,2.7-1.46,2-.1,4,.09,6-.06s2.43.43,2.41,2.34c-.1,8.17,0,16.33-.07,24.5,0,1.54.27,2.44,2,2.75,2.23.4,2.9,3.47,1.24,5.13a37.77,37.77,0,0,0-3.13,3.2,3.6,3.6,0,0,0-.33,4c.78,1.41,2.34,1.41,3.58,1,1.86-.64,2.35,0,2.87,1.71.63,2.13-.74,2.21-2,2.59-5.53,1.68-10-.51-10.66-5.29C839.67,102.25,841.56,100.1,843.87,97.86Z"/><path class="cls-15" d="M682.93,88.41c.84-.47.89-1.25,1.13-1.92q2.9-8.11,5.76-16.22c.37-1,1.12-2.38-1.07-2.23s-2.27-1.2-2.29-2.88c0-2.18,1.46-1.59,2.58-1.61,3.16,0,6.33,0,9.49,0,1,0,2.14-.13,2,1.44-.13,1.12.64,2.85-1.31,2.93-1.69.08-2,1.19-2.46,2.34q-5.61,15.21-11.18,30.44a25.91,25.91,0,0,1-3.94,7.75,9.6,9.6,0,0,1-10.09,3.1c-.4-.14-.91-.22-.88-.71.07-1.15.21-2.3.39-3.45.28-1.74,1.49-1.12,2.52-.93a3.1,3.1,0,0,0,1.93-.39c2.75-1.35,5.53-8.2,4.43-11-3.26-8.46-6.56-16.91-9.79-25.37-.36-1-.75-1.62-1.87-1.64-2.32,0-1.65-1.8-1.74-3.11-.11-1.63,1.09-1.35,2-1.35,3,0,6,0,9,0,1,0,2.11-.11,2,1.45-.12,1.22.57,3-1.59,3-2.33,0-2.06,1.14-1.47,2.72C678.62,76.52,680.73,82.38,682.93,88.41Z"/><path class="cls-15" d="M753.3,93.57A12.49,12.49,0,0,1,746.22,98c-8.38,1.56-14.54-3.48-14.71-12.17-.1-5.08-.08-10.16,0-15.24,0-1.67-.52-2.53-2.18-2.57-2.23,0-1.79-1.66-1.87-3-.1-1.78,1.14-1.5,2.19-1.48,2.48,0,5.69-.8,7.26.43s.45,4.67.56,7.13c.26,5.56-.42,11.15.47,16.7.57,3.55,1.77,4.94,5.4,5.44a9.36,9.36,0,0,0,8.44-2.68,5.6,5.6,0,0,0,1.72-4.23c-.08-5-.16-10,0-15,.08-2.24-.62-3.34-2.82-3.27s-2.25-1.26-2.28-2.92c0-2.18,1.47-1.57,2.59-1.6,2.08-.06,4.17.08,6.24,0,1.74-.12,2.29.45,2.27,2.22-.09,8.08,0,16.16-.08,24.24,0,1.85.28,3,2.42,3.17s1.56,1.72,1.63,3c.08,1.6-1,1.41-2,1.41-1.67,0-3.34-.12-5,0-1.95.19-2.8-.48-2.58-2.47A1.31,1.31,0,0,0,753.3,93.57Z"/><path class="cls-15" d="M612.22,99a21.55,21.55,0,0,1-10.6-2.14c-1.55-.7-2.38-1.68-2.14-3.46a25.19,25.19,0,0,0,0-2.75c0-3.07,1-3.81,4-3.13a1.55,1.55,0,0,1,1.21,1.65c.24,3.4,2.49,4.34,5.37,4.7,2.53.31,5,.29,7.19-1.21a4.22,4.22,0,0,0-.28-7.37c-2.12-1.26-4.53-1.61-6.85-2.22a32,32,0,0,1-5.4-1.88c-3.51-1.63-5.93-4-5.78-8.18a9.23,9.23,0,0,1,6.12-8.66,19.75,19.75,0,0,1,17.75,1.24,2.83,2.83,0,0,1,1.66,3,8.61,8.61,0,0,0,.08,2.73c.88,3.71,0,3.13-3.14,3.22-1.22,0-1.69-.47-2-1.65-1.35-4.92-9-6.74-12.57-3.07a4.17,4.17,0,0,0,1.23,7c2.34,1.15,4.95,1.39,7.42,2.1a33.69,33.69,0,0,1,4.88,1.83c3.38,1.57,5.49,4.14,5.5,7.93s-2.09,6.77-5.48,8.6A13.74,13.74,0,0,1,612.22,99Z"/><path class="cls-11" d="M628,181.05c0,1.41.06,2.83,0,4.24-.39,8,1,15.81,1.48,23.72a37.32,37.32,0,0,1,0,4.23c-.33,5.49.6,10.92.53,16.4,0,1.87.65,3.4,2.78,3.78.59.11,1.15.28,1.2,1-5.65,0-11.3,0-17,.11-1.13,0-1.62-.23-1.58-1.49.09-2.82,0-5.65,0-8.48a4,4,0,0,1,2.54-3.92c2.5-1.08,3.3-3,3.36-5.54.25-11.36.59-22.72.9-34.09Z"/><path class="cls-11" d="M642,234.46c0-.16.06-.43.15-.46,3.82-1.25,4-4.27,3.88-7.58s-.14-6.64,0-10c.45-11.81,1-23.61,1.48-35.41h5.2l.81,29.36c0,1.58.14,3.16.11,4.73-.06,2.58.85,4.46,3.34,5.54a4,4,0,0,1,2.55,3.93c0,2.82-.06,5.65,0,8.47,0,1.27-.46,1.5-1.59,1.49C652.63,234.49,647.32,234.49,642,234.46Z"/><path class="cls-15" d="M647.14,89.7c2.17-6.29,4.25-12.33,6.35-18.37.61-1.75,1.35-3.35-1.72-3.43-1.92-.05-1.12-1.86-1.26-3-.17-1.36.75-1.41,1.75-1.4,3.16,0,6.33,0,9.49,0,.82,0,1.84-.15,1.72,1.15-.1,1.11.75,2.83-1.11,3.07s-2.06,1.42-2.53,2.63c-3.3,8.34-6.63,16.67-9.85,25-.6,1.55-1.35,2.31-3.09,2.15-1.54-.15-2.89.16-3.68-2C640,87,636.44,78.47,633,69.91c-.33-.83-.43-1.84-1.64-1.91-2.31-.14-1.93-1.84-1.86-3.3.09-1.84,1.57-1.11,2.47-1.13,3.24-.09,6.49,0,9.74,0,1,0,1.92,0,1.76,1.39-.13,1.19.66,3-1.49,3-2.41.06-2.24,1.15-1.6,2.89C642.68,77.07,644.87,83.32,647.14,89.7Z"/><path class="cls-15" d="M509.74,67.66c2.22-3.36,5-5,8.77-4.7,1.3.11,2.13.26,1.59,1.86a5.82,5.82,0,0,0-.13,1.73c0,1.8-.7,2.74-2.74,2.49-2.48-.31-4.85.09-6.52,2.25a6.05,6.05,0,0,0-1.24,3.95c.08,4.91.13,9.82,0,14.73-.06,2.11.54,3.12,2.72,3.1,1.51,0,2.42.53,2.39,2.37,0,1.61-.46,2.17-2.12,2.14-4.32-.11-8.65,0-13,0-1,0-2,.11-2-1.46.06-1.32-.25-3,1.71-2.91,3,.06,3.44-1.46,3.37-4.06q-.27-9,0-18c.08-2.23-.77-3-2.74-3.11-1.32-.08-2.34-.34-2.38-2.14s.46-2.57,2.37-2.38c1.65.15,3.33,0,5,0C508.57,63.54,508.57,63.54,509.74,67.66Z"/><path class="cls-16" d="M652.47,138.93c-2.51-1.63-2.79-6.68-.48-8.76,3.41.25,6.65-.87,10-1.39,4.9-.77,9.78-1.69,14.65-2.63,1.65-.32,2.1.67,2.3,1.86a39.51,39.51,0,0,1,.05,13.33c-.2,1.16-.72,1.45-2.07,1.3-7.65-.86-15.16-2.55-22.75-3.77C653.55,138.77,653,138.48,652.47,138.93Z"/><path class="cls-15" d="M713,55.53c2.15-.57,2.61.63,2.55,2.84-.13,5,0,5.15,5,5.1,2.33,0,2,1.32,2,2.71.09,1.55-.12,2.43-2.07,2.42-5,0-5,.08-5,5.15s0,10,0,15c0,4,1,5,4.85,4.78,1.67-.08,2.41.38,2.65,2.06s-.17,2.58-2,3c-7.24,1.78-11.56-1.53-11.57-9,0-6.24-.07-12.48,0-18.72,0-1.86-.46-2.5-2.36-2.39a2.89,2.89,0,0,1-2.56-4.42c.54-.93,1.51-.6,2.26-.51,2,.22,3-.43,2.64-2.58a15.2,15.2,0,0,1,0-2.24C709.49,55.52,709.49,55.52,713,55.53Z"/><path class="cls-16" d="M623.11,130.45c2.29,2,1.86,7-.69,8.2a1.72,1.72,0,0,0-.42.43l0,0c-6.77.64-13.41,2.13-20.11,3.21-.9.14-1.81.17-2.72.26-1.61.16-2.06-.61-2.27-2.17a37.42,37.42,0,0,1,0-10.88c.45-2.83.62-3.27,3.65-2.85,4.09.57,8.15,1.39,12.23,2.09Z"/><path class="cls-15" d="M779.75,67.59c2.24-3.34,5.07-5,9-4.65,1.31.13,1.83.47,1.4,1.81a4.61,4.61,0,0,0-.12,1.49c0,2-.63,3.14-2.93,2.79-4.26-.63-8,2-7.61,7.41a132,132,0,0,1,0,13.49c-.08,2.09.48,3.18,2.68,3.12,2,0,2.51,1,2.41,2.86-.07,1.35-.58,1.68-1.81,1.66-4.17,0-8.34,0-12.5,0-1,0-1.88,0-1.76-1.41.1-1.17-.48-2.64,1.39-3,.65-.11,1.32-.16,2-.25,1.17-.16,1.66-.75,1.65-2,0-6.92-.07-13.84,0-20.75,0-2.08-1.47-1.83-2.67-2.12-1-.24-2.25,0-2.36-1.63-.14-1.85-.08-3.3,2.51-3a23,23,0,0,0,5.24,0c1.88-.16,3.06.23,3,2.4A7,7,0,0,0,779.75,67.59Z"/><path class="cls-13" d="M787.1,175.68c8.91-.22,17.75-1.52,26.69-1.25,3.61.11,7.25-1,10.88-1.49a60.09,60.09,0,0,1,18.49,8l-44,.07c-1.24,0-2.49.11-3.73.17A27.55,27.55,0,0,1,787.1,175.68Z"/><path class="cls-15" d="M536.5,78.18c0,3.83.12,7.67,0,11.49-.09,2.23.43,3.49,2.91,3.42,1.66,0,2.2.88,2.19,2.55s-.61,2-2.07,1.93c-4.33-.08-8.66,0-13,0-1,0-2.1.21-2-1.4.06-1.3-.34-3,1.65-3,3.21.08,3.47-1.68,3.41-4.26-.16-5.82-.17-11.66,0-17.48.07-2.3-.63-3.35-2.92-3.44-1.09,0-2.07-.24-2.17-1.8-.14-2,.33-2.9,2.54-2.71a48,48,0,0,0,7,0c1.89-.11,2.65.37,2.56,2.45C536.38,70,536.5,74.1,536.5,78.18Z"/><path class="cls-15" d="M806.51,78.22c0,3.91.12,7.82,0,11.72-.09,2.09.48,3.16,2.68,3.11,2,0,2.52,1,2.41,2.84-.08,1.33-.53,1.7-1.79,1.68-4.15,0-8.31,0-12.47,0-.95,0-1.9.07-1.81-1.34.07-1.26-.44-3,1.55-3,3.37.07,3.57-1.77,3.5-4.44-.17-5.81-.17-11.64,0-17.45.07-2.24-.61-3.25-2.81-3.27-1.8,0-2.37-.94-2.29-2.71,0-1.43.52-1.88,1.9-1.83,2.41.09,4.83.11,7.23,0,1.56-.08,2,.5,2,2C806.46,69.74,806.51,74,806.51,78.22Z"/><path class="cls-11" d="M690.08,175a42.84,42.84,0,0,0,15.76-.32,22.07,22.07,0,0,1,4.46-.09c-.22,2.32-.15,4.73-2.13,6.46L688,181A22.46,22.46,0,0,1,690.08,175Z"/><path class="cls-15" d="M623,49.73c-3,2.79-5.44,5.39-8.26,7.45a4.27,4.27,0,0,1-4.93-.24c-2.27-1.82-4.32-3.89-6.45-5.87-.34-.31-.91-.68-.55-1.21.17-.25.72-.28,1.1-.31,2.38-.21,4.56-.09,6.2,2.14,1.27,1.71,2.89,2.49,4.47.12C616.52,48.85,619.43,49.45,623,49.73Z"/><path class="cls-15" d="M803.77,48.61c3.12-.93,2.58,1.28,2.8,3.22.32,2.82-1.26,2.59-3.23,2.81-3,.33-2.74-1.36-2.92-3.39C800.17,48.46,801.6,48.24,803.77,48.61Z"/><path class="cls-15" d="M529.63,51.39c-1-3.33,1.32-2.66,3.19-2.9,2.87-.37,2.53,1.34,2.76,3.25.36,3-1.42,2.69-3.4,2.86C529.4,54.85,529.08,53.5,529.63,51.39Z"/><path class="cls-14" d="M747,180.27q-8.9-25.61-17.76-51.23c-.46-1.35-1.16-1.52-2.35-1.52-6.16,0-12.31.07-18.47,0a2.1,2.1,0,0,0-2.47,1.72c-.76,2.54-1.72,5-2.59,7.53L690.08,175c1,1.26,2.49,1.14,3.89,1.25,5.28.39,10.45-.52,15.65-1.18a3.49,3.49,0,0,0,.47-.2l.21-.62c2.47-7.61,4.93-15.23,7.56-23.35,3.41,10.49,6.68,20.53,9.95,30.57l.07.24c.64-1,1.68-.7,2.6-.7,5.53,0,11.06,0,16.59,0A3.57,3.57,0,0,0,747,180.27Z"/><path class="cls-16" d="M637.09,137.55c-1.57.1-3.38.17-3.13-2.84s.29-3.17,3.62-3.16,3.43.2,3.41,3.33C641,137.43,640.83,137.55,637.09,137.55Z"/><path class="cls-17" d="M622,139.08l.42-.43Z"/><path class="cls-15" d="M348.68,53c-4.2-1-8.47-.12-11.91-.42-4.37,0-7.95,0-11.53,0-1.26,0-1.71.36-1.79,1.69-.11,1.88.5,2.75,2.44,2.88,1.22.09,2.66,0,2.64,2.12-.07,10.91,0,21.82,0,32.73a1.72,1.72,0,0,1-1.67,2c-.65.1-1.32.14-2,.25-1.87.33-1.28,1.81-1.38,3-.12,1.38.8,1.39,1.78,1.38,4.16,0,8.33,0,12.49,0,1.28,0,1.72-.39,1.77-1.7.07-1.69-.31-2.79-2.2-2.8-2.34,0-3-1.19-2.89-3.46.2-3.07.11-6.16,0-9.24,0-1.43.47-1.88,1.87-1.84,3.25.07,6.5.09,9.74,0,7.29-.21,12.58-5,13.34-12C360.2,60.32,356,54.61,348.68,53Zm-2.85,21.43c-3.3.33-6.65.09-10,.15-1.16,0-1.37-.6-1.36-1.57,0-2.49,0-5,0-7.49V58.24c0-.86-.05-1.72,1.22-1.69,3.49.06,7-.22,10.47.23,5.24.67,7.53,3.87,7.39,9.46C353.47,70.85,350.75,73.91,345.83,74.39Z"/><path class="cls-15" d="M394.35,94.07c-1.59-.24-1.82-1.07-1.82-2.38,0-5.83,0-11.67,0-17.5A10.28,10.28,0,0,0,385.16,64c-4.89-1.68-9.69-1.11-14.38.71-4.23,1.63-4.34,1.86-4.26,6.36,0,1-.58,2.57,1.45,2.44,1.59-.1,3.76.78,3.89-2a3.33,3.33,0,0,1,2.11-3c6.8-3.46,12.5,0,12.57,7.59,0,2-.48,2.6-2.49,2.53-4.31-.15-8.65-.35-12.78,1.42-2.73,1.17-5,2.8-5.78,5.79-2.28,8.25,3.32,14.24,12.31,13,3.28-.44,5.77-2.41,8.41-4.68.88,4.86-.21,4.38,4.87,4.41.92,0,1.84,0,2.75,0s1.84,0,1.63-1.24S396.42,94.37,394.35,94.07Zm-9.23-4.24a11.22,11.22,0,0,1-9.8,3.16,4.11,4.11,0,0,1-3.74-3.77c-.31-2.13,1.35-4.7,3.68-5.67a11,11,0,0,1,2.63-.72c1.39-.21,2.8-.27,4.2-.39v.1a1,1,0,0,1,.25,0c1.35.32,3.55-.86,3.94.79C386.78,85.42,387.17,87.84,385.12,89.83Z"/><path class="cls-15" d="M492,94.3c-3.07-.89-2.45-3.2-2.49-5.2-.1-5.08,0-10.17,0-15.25a9.83,9.83,0,0,0-3.18-7.34c-5.5-5.33-16.59-3.86-22.13.17-.65.47-1.12,5.45-.58,6.24.82,1.22,2.14.41,3.21.61,1.72.33,1.82-1,2.08-2.12.17-.71,0-1.53.69-2.06a10.41,10.41,0,0,1,9.5-1.48c2.93.82,4.13,3.17,4.37,6.06.37,4.61.36,4.66-4.27,4.59-4.2-.06-8.33.1-12.13,2.19a9.4,9.4,0,0,0-4.91,9.37c.72,4.76,3.05,7.4,7.27,8.46,5.4,1.36,9.81-.35,13.74-4.38.69,1.41.19,3.44,1.32,4.06s2.9.26,4.39.32a14.6,14.6,0,0,0,1.75,0c.68-.06,1.72.31,1.79-.78S493.12,94.61,492,94.3ZM475.7,93c-.41,0-.83,0-1.24,0-3.63,0-5.45-1.12-5.87-3.71s1.59-5.21,4.45-6.14c3.07-1,6.25-.7,9.39-.64,1.07,0,1.07.2,1.07,3C483.5,89.41,480.11,92.63,475.7,93Z"/><path class="cls-15" d="M576.45,78.2c-1.31-14.92-14.83-18.13-23.38-13.15-6,3.46-7.61,9.32-7.62,16.74a22,22,0,0,0,.58,5.28,15.31,15.31,0,0,0,27.56,5.54C576.57,88.22,576.89,83.22,576.45,78.2Zm-7,9.34c-1.45,4.24-4,6.1-8.08,6.07-3.91,0-6.36-1.91-7.8-6.1A20.57,20.57,0,0,1,553.43,75c1.45-4.56,3.87-6.54,7.94-6.57s6.78,2,8.19,6.59A19.84,19.84,0,0,1,569.43,87.54Z"/></g></g><g id="Layer_2" data-name="Layer 2"><g class="cls-18"><g class="cls-18"><g class="cls-19"><rect class="cls-20" x="3.23" y="3.5" width="273.28" height="273.28"/></g><g class="cls-19"><g class="cls-21"><g class="cls-22"><g class="cls-23"><rect class="cls-24" x="-49.03" y="-38.29" width="425.88" height="285.86" transform="translate(-8.07 13.88) rotate(-4.73)"/></g></g></g></g><g class="cls-25"><rect class="cls-26" x="225.92" y="150.96" width="18.12" height="13.6" transform="translate(-46.73 130.49) rotate(-28.35)"/></g><g class="cls-27"><rect class="cls-28" x="202.52" y="159.03" width="14.42" height="10.82" transform="translate(-52.93 119.3) rotate(-28.35)"/></g><g class="cls-29"><rect class="cls-30" x="206.5" y="142.18" width="16.76" height="12.58" transform="translate(-44.73 119.83) rotate(-28.35)"/></g><g class="cls-31"><rect class="cls-32" x="19.42" y="204.71" width="240.9" height="72.07"/></g><g class="cls-19"><g class="cls-33"><g class="cls-34"><g class="cls-35"><rect class="cls-36" x="161.11" y="83.53" width="121.13" height="287.11" transform="translate(-57.15 378.63) rotate(-74.22)"/></g></g></g><g class="cls-37"><g class="cls-38"><g class="cls-39"><g class="cls-40"><rect class="cls-41" x="215.85" y="165.84" width="13.15" height="89.58" transform="translate(9.53 430.89) rotate(-89.42)"/></g></g></g></g><g class="cls-42"><g class="cls-43"><g class="cls-44"><rect class="cls-45" x="12.95" y="213.85" width="29.06" height="128.42" transform="translate(-250.84 302.7) rotate(-89.42)"/></g></g></g><g class="cls-46"><g class="cls-47"><g class="cls-48"><rect class="cls-49" x="-25.78" y="159.23" width="57.26" height="73.18" transform="translate(-159.41 86.16) rotate(-55.11)"/></g></g></g><path class="cls-50" d="M297.63,270.44S224.9,264.53,123,243.58C18,222,22.17,204.89,95.05,204.71h93.49s-23.53-6.4-27.27-8.5c-2.47-1.38-8.19-1.55-11.8-1.49a13.12,13.12,0,0,1-6-1.33c-3.2-1.59-8.15-3.95-9.64-4.1s-1.28-.2-2.26-.32a6,6,0,0,1-1.85-.56l-3.23-1.64a5,5,0,0,0-2.27-.53H-36.59V291.93H364.48V279.29Z"/><path class="cls-50" d="M241.28,268c-8.1-5.76-10.24-7.12-14.2-10.57s-23.17-5.3-23.17-5.3-2.68-3-4.57-3.6-15.75.08-15.75.08L177,264.56Z"/></g><g class="cls-51"><rect class="cls-52" x="203.98" y="248.44" width="12.15" height="13.42" transform="matrix(0.6, -0.8, 0.8, 0.6, -120.09, 270.39)"/></g><g class="cls-19"><g class="cls-53"><rect class="cls-54" x="235.41" y="223.19" width="122.06" height="109.35" transform="translate(-109.34 257.14) rotate(-40.22)"/></g></g><g class="cls-19"><path class="cls-50" d="M111.72,242.83s-2.86-5.15-5-5.49a18.66,18.66,0,0,0-5.71.59s-3.21-4.14-6.42-4.39-6.41-.76-6.41-.76-4.28-3.1-5.71-3.24-6.06,5.27-6.06,5.27Z"/></g><g class="cls-55"><rect class="cls-56" x="85.33" y="230.76" width="21.52" height="16.99" transform="translate(-78.23 49.28) rotate(-20.66)"/></g><g class="cls-19"><g class="cls-57"><rect class="cls-58" x="245.41" y="249.16" width="40.74" height="8.18"/></g></g><g class="cls-19"><g class="cls-59"><rect class="cls-60" x="232.61" y="238.21" width="5.29" height="18.06" transform="translate(-17.57 476.49) rotate(-88.62)"/></g></g><g class="cls-61"><rect class="cls-62" x="113.05" y="209.13" width="94.52" height="27.13"/></g><g class="cls-19"><path class="cls-50" d="M157,77.76a2.37,2.37,0,0,0,2.54-2.15,2.16,2.16,0,0,0-1.43-1.93L142.34,65a6.21,6.21,0,0,0-5.89,0l-15.72,8.71a2.14,2.14,0,0,0-1.43,1.93,2.37,2.37,0,0,0,2.54,2.15H123v8.31a3.41,3.41,0,0,0-3.65,3.1v.11a3,3,0,0,0,1.55,2.53l4.21,3.44L119.3,199.12h40.19L153.73,95.25l4.21-3.44a3,3,0,0,0,1.55-2.53v-.11a3.41,3.41,0,0,0-3.65-3.1V77.76Z"/><g class="cls-63"><g class="cls-64"><g class="cls-65"><g class="cls-66"><rect class="cls-67" x="149.18" y="41.56" width="286.97" height="71.13"/></g></g></g></g><g class="cls-63"><g class="cls-68"><g class="cls-69"><g class="cls-70"><rect class="cls-71" x="-155.75" y="54.18" width="288.06" height="64.11"/></g></g></g></g><g class="cls-72"><g class="cls-73"><g class="cls-74"><g class="cls-75"><rect class="cls-76" x="135.92" y="78.72" width="9.72" height="7.51"/></g></g></g></g></g></g></g></g></g></g></svg>