<svg xmlns="http://www.w3.org/2000/svg" xmlns:xlink="http://www.w3.org/1999/xlink" viewBox="0 0 794.33 280"><defs><style>.cls-1{mask:url(#mask);}.cls-2{mask:url(#mask-2);}.cls-3{fill:#fff;}</style><mask id="mask" x="-676.5" y="-905.46" width="621" height="294" maskUnits="userSpaceOnUse"/><mask id="mask-2" x="-676.5" y="-430.85" width="621" height="294" maskUnits="userSpaceOnUse"/></defs><title>logo_text_white</title><g id="Layer_9" data-name="Layer 9"><path class="cls-3" d="M625.81,196.46c5.84,16.6,12,33.11,17.38,49.85,1.93,6,4.21,10.08,11.16,9.57,2.4-.17,3.26.95,3.12,3.49-.26,4.52-.18,9.08,0,13.61.07,2-.63,2.43-2.49,2.42q-24.12-.11-48.23,0c-2,0-2.48-.61-2.43-2.48.12-4.66.2-9.34,0-14-.11-2.25.74-2.92,2.74-3.31,2.56-.5,6.3.3,7.32-2,.79-1.79-1.09-4.79-1.84-7.23-1.19-3.86-2.55-7.67-3.59-11.56-.48-1.82-1.36-2.24-3.09-2.24q-22.83.09-45.66,0c-2,0-2.69.74-3.22,2.56q-2.38,8.3-5.22,16.44c-.82,2.33-.21,2.88,2.08,3.27,7.82,1.3,7.8,1.4,7.8,9.2,0,2.95-.1,5.9,0,8.83.08,1.84-.35,2.54-2.38,2.53q-24.86-.12-49.71,0c-1.83,0-2.59-.34-2.53-2.38.16-4.91.11-9.82,0-14.73,0-1.53.38-2.35,2-2.21,8.1.67,10.65-4.35,12.8-11.11,5-15.73,10.74-31.23,16.19-46.81a16.33,16.33,0,0,1,.77-1.64,4.53,4.53,0,0,1,3-1.11c8.06-.09,16.13-.2,24.19.06a5,5,0,0,1,1.76.47c2,1.67.86,3.59.33,5.38-2,6.66-2,6.65,4.94,6.65,7.36,0,14.71,0,22.07,0,4,0,4.19-.36,3-4.3-.68-2.3-2-4.56-.64-7.07a4.93,4.93,0,0,1,3.73-1.21c6.94-.1,13.88-.07,20.82,0A5.83,5.83,0,0,1,625.81,196.46Z"/><path class="cls-3" d="M96.76,196.43c11.63,16.54,23.53,32.9,34.75,49.71,3.62,5.41,7.73,8.1,14,8.66s6.31.89,6.31,7.08c0,3.81-.06,7.61,0,11.42,0,1.59-.44,2.1-2.07,2.09q-28.92-.08-57.83,0c-1.61,0-2.1-.47-2.08-2.08.09-5,.19-10.08,0-15.1-.11-2.62,1.72-2.25,3.1-2.49,6.27-1.1,6.32-1.09,2.84-6.38-8.43-12.8-16.92-25.55-25.32-38.36A3.63,3.63,0,0,0,67,209c-4.29.13-8.6.13-12.89,0-1.86-.05-2.53.39-2.52,2.41q.13,19.71,0,39.41c0,1.87.6,2.47,2.37,2.76,3.86.64,7.67,1.6,11.52,2.29,1.7.29,2.48.84,2.41,2.77q-.23,7.17,0,14.36c.06,2-.64,2.42-2.51,2.41q-29.28-.09-58.56,0c-2,0-2.44-.69-2.39-2.53.11-4.66.21-9.34,0-14-.13-2.36.93-2.9,2.82-3.23,3.51-.6,7-1.47,10.48-2,2.38-.34,3.07-1.28,3.06-3.76-.1-17.8,0-35.6,0-53.4,1.38-1.36,3.16-1.2,4.85-1.2q33.09,0,66.17,0C93.56,195.31,95.28,195.34,96.76,196.43Z"/><path class="cls-3" d="M96.76,196.43l-75.95.09c0-17.43-.22-34.85,0-52.27.05-3.55-1.15-4.66-4.27-5.07-3.28-.44-6.5-1.23-9.76-1.8-1.69-.29-2.41-1-2.35-2.91.16-4.78.14-9.58,0-14.36-.05-1.91.49-2.5,2.45-2.49q29.28.1,58.55,0c2,0,2.49.6,2.44,2.49-.11,4.91-.1,9.82,0,14.73,0,1.73-.64,2.36-2.24,2.64-3.86.68-7.66,1.66-11.53,2.21-2.1.31-2.52,1.24-2.51,3.15q.1,18.6,0,37.19c0,1.86.41,2.82,2.42,2.48a1.09,1.09,0,0,1,.36,0c8.4,1.5,13.75-1.57,18.19-9.23,6.93-11.94,15.3-23,23.24-34.78-1.29-.32-2.28-.64-3.3-.8-5.49-.87-5.49-.85-5.49-6.25,0-3.69.16-7.38-.06-11-.14-2.39.74-2.79,2.91-2.79q28.17.14,56.34,0c1.95,0,2.83.34,2.75,2.56-.17,4.78-.13,9.58,0,14.36,0,1.69-.45,2.37-2.14,2.6-3.88.54-7.73,1.35-11.61,1.9a7.55,7.55,0,0,0-5.39,3.27c-10.35,14-20.82,27.92-31.25,41.86-.29.4-.58.8-.89,1.18-1.52,1.85-3.89,3.52-4.31,5.6C93,192.81,96.13,194.2,96.76,196.43Z"/><path class="cls-3" d="M178.51,196.52c0-17.68-.14-35.35,0-53,0-2.72-.66-3.9-3.45-4.21-3.4-.38-6.74-1.31-10.12-1.87-2-.33-2.9-1-2.77-3.32a115.29,115.29,0,0,0,0-12.88c-.17-2.88.68-3.63,3.59-3.62q54.69.16,109.39.06c2.95,0,5.9.09,8.84,0,1.64-.06,2.08.53,2.07,2.11q-.08,19.33,0,38.68c0,1.68-.64,2-2.16,2-6.5-.07-13-.12-19.52,0-2.24.05-2.58-.92-2.65-2.83-.18-4.53-.68-9.05-.86-13.58-.09-2.2-.89-2.86-3.1-2.85q-22.85.13-45.68,0c-1.94,0-2.78.32-2.76,2.55.11,12,.13,24.07,0,36.1,0,2.5,1,2.7,3,2.69,15.59-.07,31.18,0,46.77-.11,2.76,0,3.64.64,3.42,3.42-.29,3.54-.14,7.11-.18,10.67-1.4,1.34-3.18,1.17-4.87,1.17q-37,0-74,0C181.68,197.69,179.9,197.86,178.51,196.52Z"/><path class="cls-3" d="M178.51,197h83.78c.45,9.57.45,9.57-9.14,9.57-13.63,0-27.25.06-40.87-.07-2.47,0-3,.72-3,3.07q.17,19.14,0,38.29c0,2.5.76,3,3.08,3q22.45-.15,44.92,0c2.3,0,3.18-.57,3.28-2.93.2-4.65.8-9.29,1-13.94.07-1.95.73-2.42,2.58-2.39,6.5.11,13,.13,19.51,0,2.05,0,2.39.72,2.38,2.54q-.11,19.71,0,39.4c0,2.07-.75,2.37-2.55,2.36q-59.46-.06-118.93,0c-2,0-2.46-.64-2.41-2.51.12-4.9.1-9.82,0-14.72,0-1.76.38-2.59,2.33-2.85,3.63-.51,7.2-1.55,10.83-2,2.44-.33,3.16-1.27,3.14-3.75-.11-17.06-.06-34.12,0-51.18C178.4,198.22,178.47,197.61,178.51,197Z"/><path class="cls-3" d="M767.42,196.41c13.57,7.76,21.22,19.21,22,35s-5.21,28.13-18.68,36.68c-10.23,6.5-21.58,9.1-33.5,9.72-16.55.86-32.51-1.41-47.4-9.18-1.52-.79-3-1.67-4.49-2.5-9.1-5-15.54-11.26-13.38-23.17,1.06-5.83.26-12,.15-18,0-2,.38-2.77,2.57-2.72,6.5.15,13,.14,19.52,0,2,0,2.76.64,3,2.62.66,5.48,1.63,10.91,2.25,16.39a7,7,0,0,0,4.11,6c12.47,6.48,25.61,8.37,39.22,5.08,8-1.93,13.57-7,14.62-15.57,1-8.33-2.23-14.87-9.37-19.33-6.29-3.92-13.25-6.24-20.29-8.4-10.53-3.23-21-6.66-30.6-12.23,1.34-1.71,3.3-1.43,5.08-1.44,19.83-.06,39.66,0,59.49,0A16.5,16.5,0,0,1,767.42,196.41Z"/><path class="cls-3" d="M350.71,196.51q.06,20.43.13,40.85c0,9.29,3.63,12.92,12.89,12.93,7.36,0,14.73-.19,22.09.06,6.41.23,11.83-3.23,12.45-10.54.53-6.41,5.82-9.3,14.16-8.67,5.31.41,9.12,4.74,9.15,10.52q0,11.6,0,23.19c0,6.37-4.21,10.51-10.65,10.51H314.11c-5.47,0-9.75-3.5-10.41-8.39-.8-6,2-10.48,7.61-12.17,6.17-1.87,8.52-4.94,8.55-11.55.09-15.58.1-31.16.15-46.74,1.15-1.17,2.66-1.15,4.12-1.16q11.24-.07,22.45,0C348,195.36,349.55,195.34,350.71,196.51Z"/><path class="cls-3" d="M684.81,188.61c-17.61-13.88-17.57-43.3.08-58.66,11-9.58,24.07-13.95,38.38-14.82,22.68-1.37,43.53,3.79,61.66,18.12a4.86,4.86,0,0,1,2.21,4.26q-.15,13.81,0,27.62c0,2-.48,2.74-2.61,2.69q-9.39-.21-18.79,0c-2,0-2.72-.62-3-2.61-.84-5.45-2-10.85-3-16.27-.32-1.73-.75-3.23-2.66-4-12.7-5.27-25.72-7-39.18-3.61a20.8,20.8,0,0,0-8.34,4.52c-8.52,7.23-8.15,19.84,1,26.23,7.93,5.53,17.13,8.32,26.22,11.26,1.15.37,2.26.84,3.39,1.26a2.9,2.9,0,0,1-2.92,1.85c-6.12,0-12,2.21-18.2,1.72-9-.73-18,.6-27,1.41A16.74,16.74,0,0,1,684.81,188.61Z"/><path class="cls-3" d="M441.92,196.53q.63-25.8,1.24-51.59c0-2.17.27-4.26-2-5.86-1.8-1.29-.83-3,.35-4.45,0-.18.07-.36.1-.54a3.43,3.43,0,0,1,.62-.85c3.42-3.52,2.06-7.41.87-11.29-.74-.61-1.53-1.17-2.22-1.83-1.5-1.44-1.74-3.49,0-4.38,7-3.63,13.52-8.36,21.44-10a14.55,14.55,0,0,1,9.59,1.5c4.46,2.26,8.9,4.57,13.35,6.87,4.77,2.46,4.87,4.3.41,7.41-1.84,4.41-2.08,8.74.71,12.91,1.88,1.23,2.54,3.19.94,4.6-2,1.8-1.9,3.83-1.85,6q.6,25.74,1.25,51.48c-2.48,1.79-5.32.83-8,1.05-9.35.15-18.7.17-28,0C447.74,197.33,444.65,198.44,441.92,196.53Z"/><path class="cls-3" d="M320,200s-.08-35.45-.12-47.85c0-7.85-1.88-10.4-9.31-12.86-5.13-1.71-7.73-6.39-6.85-12.32a10,10,0,0,1,9.77-8.35q22.67-.09,45.32,0a9.71,9.71,0,0,1,9.69,9.57c.1,3.89.61,7.92-2.61,11.07a11,11,0,0,1-5.39,3c-7.1,1.63-9.62,4.8-9.66,12.13-.06,11.18-.09,45.64-.13,45.64H320Z"/><path class="cls-3" d="M132.37,28.54c12.85-9,20.09-8.57,28.14,1.84.75,0,1-.65,1.33-1.11,5.28-6.74,11.37-8.2,19.33-6,6.19,1.71,10.27,8.35,10.43,16.25.17,7.73.19,15.47,0,23.2-.08,2.9,1,4.05,3.7,4.09s4,1,3.82,4c-.14,2.12-.82,2.71-2.84,2.68-6.5-.1-13,0-19.52,0-1.33,0-2.88.25-2.77-1.88.1-1.83-.78-4.5,2.21-4.52,5.07,0,5.44-2.94,5.19-6.91-.43-7.21.6-14.47-.72-21.66-.8-4.37-3-7-6.89-7.62-4.13-.65-7.82.3-10.35,4a15.47,15.47,0,0,0-2.72,9c0,6.63.23,13.27-.09,19.88-.16,3.3,1.13,4.44,4,4.57,2.27.1,3.54.86,3.5,3.55,0,2.4-.71,3.2-3.14,3.13-5.76-.15-11.53,0-17.3,0-1.53,0-3.36.47-3.25-2.17.09-1.95-.39-4.31,2.53-4.31,4.31,0,5.19-2.14,4.93-6-.52-7.81.53-15.69-.75-23.5-1.15-7-5.69-8.84-10.76-8.75-6.74.13-10.66,4.27-10.66,10.49,0,7.25.16,14.49-.08,21.73-.11,3,1,4.22,3.8,4.41,2.08.14,3.76.47,3.73,3.34,0,2.48-.61,3.46-3.28,3.37-5.76-.19-11.54,0-17.3-.07-1.38,0-3.17.5-3.08-1.94.07-1.87-.64-4.51,2.3-4.43,5,.12,5.23-2.7,5.13-6.58q-.33-13.06,0-26.14c.08-3.06-1.1-4.2-3.85-4.37-2.12-.13-3.7-.55-3.69-3.38,0-2.55.73-3.49,3.33-3.31,3.06.21,6.14,0,9.21,0C131.51,23.33,131.51,23.33,132.37,28.54Z"/><path class="cls-3" d="M450.44,197h28.49c1.33,1.55,1.24,3.41.94,5.2a82.07,82.07,0,0,0-.55,11.62c-.37,17.45-2.15,34.86-1.51,52.35.18,4.78-2.2,7.77-6.91,8.83H459.21c-6.3-2.23-6.66-3.09-7-10-.69-13.2-.25-26.48-1.69-39.59-.86-7.88-1.09-15.69-1.17-23.56C449.31,200.16,449.19,198.41,450.44,197Z"/><path class="cls-3" d="M768.48,73.91c-3.84-.56-3.84-.56-4.62-5.93-1.12-.49-1.5.53-2,1.08-6,6.07-13.11,6.94-20.64,4.08s-9.66-9.47-10-16.61c-.39-7.47-.19-15,0-22.47,0-2.54-.57-4-3.3-4.08-3.32-.09-2.54-2.56-2.66-4.55-.14-2.69,1.81-2.09,3.29-2.11,3.31,0,6.64.13,9.94-.06,2.48-.14,3.12.8,3.08,3.16-.12,8.1-.06,16.21,0,24.31a52.27,52.27,0,0,0,.5,7.69c.57,3.88,1.55,7.36,5.89,8.36,5,1.15,9.73.31,13.41-3.68a8.68,8.68,0,0,0,2.3-6.38c-.14-7.36-.27-14.74,0-22.09.14-3.27-1.1-4.62-4-4.57-3.45.05-3.57-1.95-3.51-4.56.07-3.26,2.43-2.07,4-2.15,2.94-.15,5.9.13,8.83-.09,2.72-.21,3.59.63,3.55,3.45-.15,12,0,24.07-.1,36.1,0,2.27.4,3.61,3,4.06,3.28.58,4.27,5.11,1.83,7.56a55.55,55.55,0,0,0-4.62,4.72,5.28,5.28,0,0,0-.48,5.92c1.15,2.08,3.45,2.08,5.26,1.45,2.75-1,3.48-.09,4.24,2.51.93,3.15-1.08,3.26-2.91,3.82-8.16,2.48-14.74-.75-15.72-7.8C762.28,80.39,765.08,77.21,768.48,73.91Z"/><path class="cls-3" d="M531.28,60c1.23-.69,1.31-1.85,1.66-2.84q4.26-11.94,8.49-23.9c.54-1.55,1.66-3.51-1.57-3.29s-3.35-1.77-3.39-4.25c-.05-3.2,2.16-2.34,3.8-2.37,4.67-.07,9.34,0,14,0,1.5,0,3.16-.2,2.89,2.12-.19,1.65.94,4.19-1.94,4.32-2.49.11-3,1.75-3.62,3.45q-8.26,22.41-16.47,44.87c-1.48,4-3,8-5.81,11.41-3.47,4.29-9.78,6.29-14.87,4.56-.6-.2-1.34-.31-1.3-1a50.94,50.94,0,0,1,.58-5.08c.41-2.57,2.19-1.66,3.7-1.39a4.6,4.6,0,0,0,2.84-.56c4.07-2,8.16-12.08,6.54-16.28-4.8-12.47-9.66-24.91-14.43-37.39-.54-1.41-1.1-2.39-2.76-2.42-3.42-.06-2.42-2.65-2.56-4.57-.17-2.41,1.61-2,3-2,4.42,0,8.84,0,13.26,0,1.52,0,3.11-.17,2.88,2.14-.17,1.79.84,4.36-2.34,4.38-3.44,0-3,1.68-2.17,4C524.92,42.46,528,51.1,531.28,60Z"/><path class="cls-3" d="M635,67.6c-2.77,3.15-6.08,5.76-10.45,6.57-12.35,2.31-21.43-5.12-21.67-17.92-.15-7.49-.12-15,0-22.47,0-2.46-.76-3.73-3.21-3.79-3.28-.08-2.64-2.44-2.75-4.48-.15-2.62,1.68-2.21,3.22-2.18,3.66.06,8.38-1.18,10.7.64,2.49,1.94.67,6.88.83,10.51.38,8.2-.62,16.43.69,24.61.84,5.24,2.61,7.28,8,8,4.67.63,9-.37,12.44-3.94a8.23,8.23,0,0,0,2.53-6.24c-.12-7.37-.23-14.74,0-22.1.13-3.29-.9-4.91-4.14-4.81s-3.32-1.86-3.36-4.31c-.06-3.21,2.16-2.32,3.8-2.36,3.07-.09,6.15.13,9.21-.07,2.56-.17,3.37.66,3.34,3.28-.13,11.9,0,23.82-.11,35.72,0,2.73.41,4.48,3.56,4.67,3,.18,2.3,2.53,2.4,4.43.13,2.37-1.49,2.08-3,2.09-2.45,0-4.93-.19-7.36,0-2.87.28-4.12-.71-3.79-3.64A2,2,0,0,0,635,67.6Z"/><path class="cls-3" d="M427.06,75.6a31.8,31.8,0,0,1-15.62-3.16c-2.29-1-3.51-2.48-3.17-5.11a32,32,0,0,0,0-4c0-4.52,1.52-5.62,6-4.61a2.27,2.27,0,0,1,1.78,2.43c.35,5,3.66,6.39,7.91,6.92,3.74.46,7.36.43,10.6-1.78,4.17-2.84,3.93-8.28-.42-10.87-3.12-1.85-6.67-2.37-10.09-3.26a46.93,46.93,0,0,1-8-2.78c-5.16-2.39-8.74-5.89-8.51-12.05a13.58,13.58,0,0,1,9-12.76,29.11,29.11,0,0,1,26.16,1.83,4.17,4.17,0,0,1,2.46,4.44,12.09,12.09,0,0,0,.12,4c1.29,5.47,0,4.61-4.64,4.74-1.79,0-2.49-.68-3-2.43-2-7.25-13.2-9.93-18.53-4.52-3.36,3.41-2.55,8.16,1.82,10.32,3.43,1.69,7.28,2,10.92,3.08a48.49,48.49,0,0,1,7.21,2.71c5,2.31,8.09,6.1,8.09,11.68,0,5.78-3.07,10-8.07,12.67A20.25,20.25,0,0,1,427.06,75.6Z"/><path class="cls-3" d="M450.31,196.52c0,2.08.09,4.17,0,6.25-.57,11.73,1.46,23.3,2.18,35a52,52,0,0,1,0,6.24c-.48,8.08.89,16.09.79,24.16,0,2.76.95,5,4.09,5.58.87.16,1.7.42,1.77,1.53-8.33,0-16.65.05-25,.16-1.66,0-2.4-.33-2.34-2.2.14-4.15.05-8.32.05-12.48a5.93,5.93,0,0,1,3.75-5.79c3.68-1.59,4.86-4.37,4.94-8.16.38-16.75.88-33.5,1.34-50.24Z"/><path class="cls-3" d="M471,275.24c.07-.24.09-.64.22-.68,5.62-1.83,5.9-6.29,5.72-11.17s-.2-9.79,0-14.68c.67-17.4,1.45-34.79,2.19-52.19h7.66q.6,21.63,1.19,43.27c.06,2.33.21,4.65.16,7-.09,3.81,1.25,6.57,4.93,8.16a5.91,5.91,0,0,1,3.75,5.79c0,4.16-.09,8.33.05,12.49.05,1.86-.67,2.21-2.34,2.19C486.62,275.29,478.79,275.28,471,275.24Z"/><path class="cls-3" d="M478.53,61.88c3.2-9.26,6.26-18.17,9.35-27.07.9-2.57,2-4.94-2.53-5.05-2.83-.07-1.65-2.74-1.86-4.38-.25-2,1.11-2.07,2.58-2.07,4.66,0,9.32,0,14,0,1.2,0,2.71-.22,2.54,1.69-.15,1.64,1.1,4.17-1.64,4.53-2.57.33-3,2.1-3.73,3.87-4.87,12.3-9.77,24.58-14.52,36.92-.88,2.28-2,3.4-4.55,3.16-2.28-.21-4.26.24-5.43-2.87-4.79-12.72-10-25.29-15-37.91-.49-1.22-.63-2.71-2.43-2.82-3.39-.2-2.84-2.71-2.73-4.85.13-2.73,2.31-1.64,3.64-1.68,4.78-.12,9.56,0,14.35-.05,1.45,0,2.83,0,2.6,2-.2,1.76,1,4.41-2.2,4.48-3.55.09-3.3,1.7-2.36,4.26C472,43.27,475.18,52.49,478.53,61.88Z"/><path class="cls-3" d="M276,29.4c3.28-4.95,7.32-7.41,12.92-6.93,1.92.16,3.14.38,2.34,2.74a9,9,0,0,0-.19,2.56c0,2.66-1,4-4,3.67-3.66-.46-7.15.12-9.61,3.31a8.87,8.87,0,0,0-1.82,5.82c.1,7.24.19,14.48,0,21.72-.1,3.1.79,4.6,4,4.57,2.23,0,3.57.77,3.52,3.49,0,2.38-.67,3.2-3.12,3.14-6.38-.15-12.76,0-19.14,0-1.52,0-3,.15-2.9-2.15.08-2-.38-4.37,2.52-4.3,4.42.1,5.06-2.15,4.95-6-.26-8.82-.27-17.67,0-26.49.11-3.28-1.13-4.39-4-4.58-1.95-.12-3.44-.51-3.51-3.15s.68-3.79,3.5-3.52c2.43.23,4.9,0,7.35,0C274.29,23.33,274.29,23.33,276,29.4Z"/><path class="cls-3" d="M486.38,134.45c-3.7-2.4-4.11-9.85-.71-12.91,5,.36,9.8-1.28,14.67-2.05,7.22-1.15,14.41-2.5,21.58-3.89,2.44-.47,3.11,1,3.39,2.75A58.39,58.39,0,0,1,525.4,138c-.3,1.71-1.07,2.14-3,1.91-11.29-1.26-22.36-3.76-33.54-5.56C488,134.22,487.17,133.77,486.38,134.45Z"/><path class="cls-3" d="M575.6,11.53c3.16-.84,3.84.92,3.76,4.18-.2,7.39-.05,7.59,7.29,7.52,3.43,0,2.87,1.94,3,4,.13,2.27-.17,3.57-3.06,3.56-7.29,0-7.29.12-7.29,7.59s0,14.72,0,22.08c.06,5.92,1.41,7.33,7.14,7,2.47-.12,3.56.57,3.91,3s-.25,3.81-2.89,4.45c-10.66,2.62-17-2.25-17.05-13.23,0-9.2-.1-18.4.07-27.6,0-2.73-.69-3.68-3.49-3.51a4.26,4.26,0,0,1-3.78-6.52c.8-1.37,2.24-.88,3.33-.76,3,.34,4.39-.62,3.9-3.79a21.49,21.49,0,0,1,0-3.31C570.43,11.52,570.43,11.52,575.6,11.53Z"/><path class="cls-3" d="M443.12,122c3.36,2.89,2.73,10.3-1,12.08a2.85,2.85,0,0,0-.62.63l.06,0c-10,.93-19.76,3.12-29.64,4.72-1.32.21-2.67.25-4,.38-2.38.24-3-.9-3.35-3.2a54.85,54.85,0,0,1,0-16c.65-4.16.9-4.81,5.37-4.2,6,.83,12,2,18,3.08Z"/><path class="cls-3" d="M674,29.3c3.3-4.92,7.46-7.39,13.19-6.85,1.94.18,2.7.68,2.07,2.66a7.34,7.34,0,0,0-.17,2.2c0,2.94-.93,4.62-4.32,4.12-6.28-.93-11.77,2.93-11.22,10.92a193.85,193.85,0,0,1,0,19.88c-.1,3.07.71,4.68,4,4.59,2.9-.08,3.7,1.47,3.55,4.21-.1,2-.85,2.48-2.67,2.46-6.14-.08-12.28,0-18.42,0-1.48,0-2.76-.07-2.59-2.08.14-1.71-.71-3.89,2-4.36,1-.17,2-.24,2.92-.37,1.72-.23,2.45-1.11,2.44-3-.08-10.19-.11-20.38,0-30.57,0-3.07-2.16-2.71-3.94-3.13-1.47-.36-3.31,0-3.48-2.39-.2-2.73-.11-4.88,3.71-4.35a35,35,0,0,0,7.73,0c2.76-.24,4.5.33,4.4,3.53A9.62,9.62,0,0,0,674,29.3Z"/><path class="cls-3" d="M684.81,188.61c13.12-.32,26.15-2.24,39.34-1.84,5.32.16,10.69-1.41,16-2.2,9.66,2.61,18.92,6.16,27.24,11.84q-32.38,0-64.79.11c-1.83,0-3.67.16-5.51.24A40.58,40.58,0,0,1,684.81,188.61Z"/><path class="cls-3" d="M315.46,44.91c0,5.65.17,11.3-.06,16.93-.14,3.28.63,5.15,4.28,5,2.45-.07,3.25,1.29,3.23,3.75s-.89,2.88-3,2.84c-6.38-.11-12.76,0-19.14,0-1.46,0-3.08.3-3-2.07.09-1.91-.5-4.42,2.43-4.35,4.73.12,5.12-2.47,5-6.28q-.34-12.89,0-25.76c.1-3.4-.93-4.94-4.31-5.08-1.6-.06-3.05-.36-3.2-2.65-.2-2.93.5-4.27,3.75-4a72.26,72.26,0,0,0,10.3,0c2.78-.17,3.91.54,3.78,3.6C315.28,32.88,315.46,38.9,315.46,44.91Z"/><path class="cls-3" d="M713.42,45c0,5.76.17,11.52-.07,17.27-.13,3.07.71,4.67,3.95,4.58,2.88-.07,3.72,1.44,3.56,4.19-.12,2-.79,2.51-2.64,2.48-6.12-.08-12.25,0-18.38,0-1.4,0-2.8.1-2.67-2,.1-1.86-.65-4.5,2.29-4.44,5,.11,5.26-2.61,5.15-6.53q-.36-12.87,0-25.73c.1-3.29-.91-4.78-4.14-4.82-2.66,0-3.49-1.39-3.39-4,.09-2.1.77-2.76,2.81-2.68,3.55.12,7.11.15,10.66,0,2.29-.11,3,.73,2.9,2.95C713.34,32.47,713.42,38.72,713.42,45Z"/><path class="cls-3" d="M541.81,187.67A63.46,63.46,0,0,0,565,187.2c2.1-.47,4.38-.11,6.57-.14-.32,3.42-.21,7-3.13,9.52l-29.71-.07A32.6,32.6,0,0,1,541.81,187.67Z"/><path class="cls-3" d="M442.9,3c-4.45,4.12-8,8-12.17,11a6.32,6.32,0,0,1-7.27-.36C420.12,10.92,417.09,7.87,414,5c-.49-.46-1.33-1-.8-1.79.24-.35,1.06-.4,1.62-.45,3.51-.31,6.72-.13,9.14,3.16,1.86,2.52,4.25,3.67,6.58.18C433.4,1.67,437.68,2.56,442.9,3Z"/><path class="cls-3" d="M709.37,1.33c4.6-1.37,3.8,1.88,4.13,4.74.48,4.15-1.85,3.82-4.77,4.14-4.45.48-4-2-4.3-5C704.07,1.1,706.17.78,709.37,1.33Z"/><path class="cls-3" d="M305.33,5.43C303.88.52,307.27,1.5,310,1.15c4.22-.55,3.72,2,4.06,4.78.54,4.51-2.1,4-5,4.23C305,10.52,304.52,8.53,305.33,5.43Z"/><path class="cls-3" d="M625.68,195.37c-8.74-25.16-17.52-50.31-26.17-75.51-.69-2-1.72-2.24-3.48-2.23-9.07.07-18.14.1-27.21,0-2.06,0-3,.53-3.64,2.54-1.12,3.74-2.54,7.39-3.82,11.09q-9.78,28.22-19.55,56.43c1.52,1.85,3.68,1.68,5.74,1.83,7.77.59,15.4-.76,23.06-1.73a4.47,4.47,0,0,0,.7-.3l.3-.9c3.64-11.23,7.28-22.46,11.15-34.42,5,15.45,9.84,30.25,14.66,45l.1.36c1-1.43,2.48-1,3.83-1,8.15-.05,16.31,0,24.46-.06A4.93,4.93,0,0,0,625.68,195.37Z"/><path class="cls-3" d="M463.72,132.41c-2.32.15-5,.26-4.62-4.18s.43-4.68,5.34-4.67c4.74,0,5,.3,5,4.92C469.45,132.23,469.22,132.41,463.72,132.41Z"/><path class="cls-3" d="M441.47,134.66l.62-.63Z"/><path class="cls-3" d="M38.64,7.74c-6.2-1.4-12.48-.18-17.56-.62-6.43,0-11.71.06-17,0-1.86,0-2.52.53-2.64,2.48-.17,2.78.73,4.06,3.59,4.26C6.85,14,9,13.9,8.94,17c-.1,16.08-.07,32.16,0,48.24,0,1.87-.77,2.7-2.46,3-1,.14-1.95.2-2.91.37-2.75.48-1.88,2.66-2,4.37-.17,2,1.17,2.05,2.62,2,6.14,0,12.28-.06,18.41,0,1.89,0,2.53-.58,2.61-2.51.11-2.49-.46-4.11-3.24-4.13-3.45,0-4.48-1.75-4.26-5.1.29-4.52.16-9.08,0-13.61-.05-2.11.71-2.77,2.77-2.72,4.78.11,9.57.14,14.35,0,10.75-.31,18.54-7.41,19.66-17.74C55.62,18.58,49.4,10.17,38.64,7.74Zm-4.2,31.58c-4.86.48-9.8.14-14.71.23-1.7,0-2-.89-2-2.32,0-3.68,0-7.36,0-11s0-7.11,0-10.67c0-1.27-.07-2.53,1.8-2.5,5.15.1,10.35-.31,15.43.34,7.73,1,11.1,5.71,10.9,14C45.7,34.11,41.7,38.61,34.44,39.32Z"/><path class="cls-3" d="M106,68.32c-2.36-.34-2.69-1.57-2.69-3.5q0-12.9,0-25.79c0-7.23-3.94-12.64-10.81-15-7.21-2.47-14.28-1.62-21.2,1.06-6.23,2.4-6.4,2.74-6.28,9.37,0,1.51-.85,3.78,2.14,3.6,2.34-.15,5.55,1.15,5.74-3a4.86,4.86,0,0,1,3.11-4.49c10-5.1,18.42,0,18.53,11.19,0,2.87-.71,3.82-3.68,3.72C84.42,45.28,78,45,71.93,47.61c-4,1.72-7.31,4.13-8.52,8.52-3.35,12.17,4.89,21,18.15,19.19,4.83-.66,8.51-3.57,12.4-6.9,1.29,7.16-.32,6.45,7.18,6.49,1.35,0,2.7,0,4,0s2.71,0,2.4-1.84S109,68.77,106,68.32ZM92.34,62.08A16.57,16.57,0,0,1,77.9,66.74a6,6,0,0,1-5.5-5.56c-.47-3.15,2-6.92,5.42-8.36a16.21,16.21,0,0,1,3.87-1.06c2-.3,4.12-.4,6.19-.58v.15a1.53,1.53,0,0,1,.37,0c2,.46,5.24-1.28,5.81,1.16C94.79,55.57,95.37,59.14,92.34,62.08Z"/><path class="cls-3" d="M249.9,68.66c-4.52-1.3-3.6-4.71-3.66-7.66-.15-7.49-.05-15-.05-22.48a14.57,14.57,0,0,0-4.68-10.82c-8.11-7.85-24.46-5.69-32.63.26-.95.69-1.65,8-.85,9.2,1.21,1.8,3.15.59,4.73.9,2.53.48,2.68-1.48,3.07-3.12.25-1,0-2.27,1-3,4.28-3.22,9.12-3.55,14-2.19,4.32,1.21,6.09,4.67,6.43,8.93.54,6.8.53,6.87-6.29,6.77-6.19-.09-12.27.15-17.87,3.23-5.08,2.8-8.05,8.44-7.24,13.81,1.06,7,4.5,10.91,10.71,12.47,8,2,14.47-.52,20.26-6.45,1,2.07.27,5.07,1.94,6s4.28.39,6.47.47a22.2,22.2,0,0,0,2.58,0c1-.09,2.54.46,2.64-1.15S251.52,69.13,249.9,68.66Zm-24.05-1.85c-.6.06-1.22,0-1.83,0-5.35.06-8-1.64-8.64-5.45-.59-3.64,2.34-7.69,6.55-9.06,4.53-1.46,9.21-1,13.84-.94,1.58,0,1.57.29,1.57,4.48C237.34,61.46,232.35,66.21,225.85,66.81Z"/><path class="cls-3" d="M374.34,44.94c-1.93-22-21.86-26.72-34.46-19.38-8.78,5.1-11.22,13.74-11.23,24.67A31.66,31.66,0,0,0,329.5,58a22.56,22.56,0,0,0,40.62,8.16C374.52,59.7,375,52.33,374.34,44.94ZM364,58.7c-2.15,6.25-5.92,9-11.91,9-5.77-.05-9.39-2.81-11.5-9a27.6,27.6,0,0,1-1.52-9.37,27.36,27.36,0,0,1,1.34-9c2.13-6.72,5.7-9.63,11.71-9.67,6.2-.05,10,2.89,12.07,9.71A29.24,29.24,0,0,1,364,58.7Z"/></g></svg>