<svg xmlns="http://www.w3.org/2000/svg" xmlns:xlink="http://www.w3.org/1999/xlink" viewBox="0 0 500 500"><defs><style>.a{fill:none;}.b{isolation:isolate;}.c{clip-path:url(#a);}.d{fill:url(#b);}.e{opacity:0.1;mix-blend-mode:color-burn;fill:url(#c);}.f{fill:url(#d);}.g{fill:url(#e);}.h{fill:url(#f);}.i{fill:url(#g);}.j{opacity:0.74;fill:url(#h);}.k{opacity:0.51;fill:url(#i);}.l{opacity:0.22;fill:url(#j);}.m{opacity:0.35;fill:url(#k);}.n{fill:#2b1428;}.o{fill:url(#l);}.p{fill:url(#m);}.q{fill:url(#n);}.r{fill:url(#o);}.s{fill:url(#p);}.t{fill:url(#q);}.u,.v{opacity:0.58;}.u{fill:url(#r);}.v{fill:url(#s);}.w{opacity:0.7;fill:url(#t);}.x{mask:url(#u);}</style><clipPath id="a"><circle class="a" cx="249.7605" cy="250.248" r="243.9969"/></clipPath><linearGradient id="b" x1="365.9106" y1="620.6341" x2="365.9106" y2="-25.752" gradientUnits="userSpaceOnUse"><stop offset="0.1582" stop-color="#f3dc53"/><stop offset="0.3306" stop-color="#f1c856"/><stop offset="0.682" stop-color="#ed945e"/><stop offset="0.9235" stop-color="#ea6d64"/></linearGradient><linearGradient id="c" x1="287.3808" y1="387.1325" x2="287.3808" y2="-44.1175" gradientTransform="translate(-9.0789 21.307) rotate(-4.7328)" gradientUnits="userSpaceOnUse"><stop offset="0" stop-color="#7a2e3a"/><stop offset="0.148" stop-color="#612634"/><stop offset="0.33" stop-color="#491e2f"/><stop offset="0.524" stop-color="#38182b"/><stop offset="0.736" stop-color="#2e1529"/><stop offset="1" stop-color="#2b1428"/></linearGradient><linearGradient id="d" x1="410.6193" y1="310.5355" x2="417.1944" y2="323.3165" gradientTransform="translate(-2.2278 -32.2472) rotate(-1.1231)" xlink:href="#c"/><linearGradient id="e" x1="366.3092" y1="323.9625" x2="371.5406" y2="334.1313" gradientTransform="translate(-2.2278 -32.2472) rotate(-1.1231)" xlink:href="#c"/><linearGradient id="f" x1="375.4286" y1="294.1139" x2="381.5101" y2="305.9352" gradientTransform="translate(-2.2278 -32.2472) rotate(-1.1231)" xlink:href="#c"/><linearGradient id="g" x1="292.7577" y1="521.3093" x2="292.7577" y2="365.553" gradientUnits="userSpaceOnUse"><stop offset="0.5102" stop-color="#e75352"/><stop offset="0.602" stop-color="#e75352"/><stop offset="1" stop-color="#ea6e64"/></linearGradient><linearGradient id="h" x1="364.5591" y1="540.0078" x2="423.3258" y2="332.1202" gradientUnits="userSpaceOnUse"><stop offset="0.6224" stop-color="#e5464b"/><stop offset="0.6283" stop-color="#e5474b"/><stop offset="1" stop-color="#ea6e64"/></linearGradient><linearGradient id="i" x1="396.9649" y1="386.6592" x2="397.4151" y2="342.5371" gradientUnits="userSpaceOnUse"><stop offset="0.0051" stop-color="#f3dc52" stop-opacity="0"/><stop offset="0.2746" stop-color="#f3dc52" stop-opacity="0.3592"/><stop offset="0.5506" stop-color="#f3dc53" stop-opacity="0.7014"/><stop offset="0.7465" stop-color="#f3dc53" stop-opacity="0.9168"/><stop offset="0.8418" stop-color="#f3dc53"/></linearGradient><linearGradient id="j" x1="48.8212" y1="521.5786" x2="49.8047" y2="425.1948" gradientTransform="matrix(1, 0, 0, 1, 0, 0)" xlink:href="#c"/><linearGradient id="k" x1="-37.5917" y1="411.3991" x2="34.5949" y2="307.868" gradientUnits="userSpaceOnUse"><stop offset="0" stop-color="#2b1428"/><stop offset="0.264" stop-color="#2e1529"/><stop offset="0.476" stop-color="#38182b"/><stop offset="0.67" stop-color="#491e2f"/><stop offset="0.852" stop-color="#612634"/><stop offset="1" stop-color="#7a2e3a"/></linearGradient><linearGradient id="l" x1="290.8282" y1="865.3696" x2="356.4538" y2="942.9646" gradientTransform="matrix(0.9745, -0.2242, 0.2242, 0.9745, -133.5787, -353.4421)" xlink:href="#c"/><linearGradient id="m" x1="449.2214" y1="401.4198" x2="583.8911" y2="560.6518" gradientTransform="matrix(1, 0, 0, 1, 0, 0)" xlink:href="#c"/><linearGradient id="n" x1="163.9556" y1="414.0989" x2="172.3074" y2="436.2493" gradientTransform="matrix(1, 0, 0, 1, 0, 0)" xlink:href="#c"/><linearGradient id="o" x1="473.926" y1="459.1553" x2="473.926" y2="445.3975" gradientTransform="matrix(1, 0, 0, 1, 0, 0)" xlink:href="#c"/><linearGradient id="p" x1="421.0477" y1="398.4631" x2="421.0477" y2="389.8758" gradientTransform="matrix(0.9997, 0.024, -0.024, 0.9997, 8.6899, 37.3508)" xlink:href="#c"/><linearGradient id="q" x1="287.2781" y1="420.2721" x2="287.2781" y2="373.4554" gradientTransform="matrix(1, 0, 0, 1, 0, 0)" xlink:href="#c"/><linearGradient id="r" x1="266.3972" y1="137.7362" x2="778.837" y2="137.7362" gradientUnits="userSpaceOnUse"><stop offset="0" stop-color="#f3dc52"/><stop offset="0.1595" stop-color="#f3dc52" stop-opacity="0.746"/><stop offset="0.3201" stop-color="#f3dc52" stop-opacity="0.5214"/><stop offset="0.477" stop-color="#f3dc51" stop-opacity="0.3345"/><stop offset="0.6263" stop-color="#f3dc51" stop-opacity="0.189"/><stop offset="0.7662" stop-color="#f3dc51" stop-opacity="0.0849"/><stop offset="0.8929" stop-color="#f3dc51" stop-opacity="0.0219"/><stop offset="0.9949" stop-color="#f3dc51" stop-opacity="0"/></linearGradient><linearGradient id="s" x1="-3940.0869" y1="91.6878" x2="-3425.7001" y2="91.6878" gradientTransform="translate(-3703.8197 245.6667) rotate(180)" xlink:href="#r"/><linearGradient id="t" x1="260.068" y1="147.2763" x2="242.7112" y2="147.2763" gradientUnits="userSpaceOnUse"><stop offset="0" stop-color="#f3dc51"/><stop offset="0.083" stop-color="#f3dc51" stop-opacity="0.9184"/><stop offset="0.2932" stop-color="#f3dc51" stop-opacity="0.734"/><stop offset="0.4954" stop-color="#f3dc52" stop-opacity="0.5889"/><stop offset="0.6849" stop-color="#f3dc52" stop-opacity="0.4848"/><stop offset="0.8566" stop-color="#f3dc52" stop-opacity="0.4219"/><stop offset="0.9949" stop-color="#f3dc52" stop-opacity="0.4"/></linearGradient><mask id="u" x="588.5912" y="37.8287" width="424.3425" height="424.3425" maskUnits="userSpaceOnUse"/></defs><title>logo</title><g class="b"><g class="c"><rect class="d" x="-65.3394" y="-25.752" width="862.5001" height="646.3861"/><path class="e" d="M-47.1663,412.9173C9.693,347.0513,211.6123,279.5609,293.7332,308.5339s333.7551-11.9162,347.7782-37.6672-8.3625-310.0735-8.3625-310.0735L-70.1417-17.906Z"/><path class="f" d="M434.2415,279.2953c-3.0037-1.5064-8.1283-2.6642-13.6895,2.2734a1.0127,1.0127,0,0,1-1.244.0444c-1.9334-1.4625-7.9728-5.3669-14.3163-2.6347-.8106.3491-.5832,1.38.3229,1.4424,3.8063.2627,10.5823,1.4256,13.8991,6.2379a.9893.9893,0,0,0,1.5394.0393,15.1323,15.1323,0,0,1,12.9887-5.9857C434.6811,280.7563,435.0514,279.7014,434.2415,279.2953Z"/><path class="g" d="M386.1475,291.7248c-2.39-1.1986-6.4671-2.12-10.8918,1.8087a.8054.8054,0,0,1-.99.0353c-1.5384-1.1636-6.3434-4.27-11.3905-2.0962-.6449.2778-.4639,1.0979.257,1.1477,3.0283.209,8.4195,1.1342,11.0584,4.963a.7871.7871,0,0,0,1.2247.0312,12.04,12.04,0,0,1,10.3341-4.7622C386.4971,292.8871,386.7917,292.0479,386.1475,291.7248Z"/><path class="h" d="M397.246,262.8821c-2.7782-1.3933-7.518-2.4641-12.6617,2.1028a.9368.9368,0,0,1-1.15.0411c-1.7883-1.3528-7.3743-4.964-13.2414-2.4369-.75.3229-.5395,1.2763.2987,1.3342,3.52.2429,9.7878,1.3185,12.8555,5.77a.915.915,0,0,0,1.4238.0363,13.996,13.996,0,0,1,12.0135-5.5362C397.6525,264.2335,397.995,263.2578,397.246,262.8821Z"/><rect class="i" x="-65.3395" y="365.553" width="716.1944" height="155.7563"/><path class="j" d="M650.8549,444.1932s-35.54,1.62-79.3472-9.2341c-27.7635-6.879-10.4627-15.266-27.2734-18.5913s-79.1053-.2-115.069,1.222S282.12,395.5,229.2237,389.5163s1.5108-17.9865,1.5108-17.9865-89.8856,1.9759-74.81-5.9768l494.93-.351Z"/><path class="k" d="M317.3073,365.4014c18.5613,13.2873,46.66,21.6549,79.3817,21.6549s61.808-8.567,80.3694-21.8543Z"/><path class="l" d="M163.493,521.3093s-63.3748-14.571-74.38-16.3242-40.6054-3.5032-40.6054-3.5032-6.0718-8.157-15.5591-9.91-34.5511-1.0384-34.5511-1.0384L-11.8314,484.46l-7.9692-.5106s-14.856-10.8906-18.2435-11.257-27.2953-.9361-27.2953-.9361v49.5534Z"/><path class="m" d="M-65.3394,362.8951H75.5365s-21.8929-8.3189-24.7485-8.3189H27.9433S7.9541,348.2147.3392,346.2573s-29.5078,0-29.5078,0-13.3261-7.83-17.1336-8.8082-19.0373,0-19.0373,0Z"/><path class="n" d="M531.4892,482.9342S401.603,472.3719,219.5557,434.959c-187.4838-38.53-179.9723-69.075-49.8187-69.406H336.6843s-42.0167-11.4212-48.7012-15.1761c-4.4057-2.4749-14.619-2.7615-21.0705-2.6694a23.4233,23.4233,0,0,1-10.7232-2.3664c-5.7076-2.84-14.5467-7.0578-17.2135-7.3306-2.4763-.2532-2.2847-.344-4.03-.5729a10.2934,10.2934,0,0,1-3.3057-1l-5.7656-2.9191a9.0237,9.0237,0,0,0-4.0574-.9443H-65.3394V521.3093H650.8549V498.7254Z"/><path class="n" d="M430.8622,478.6321c-14.4765-10.3-18.2978-12.7251-25.3666-18.8839s-41.3676-9.4555-41.3676-9.4555-4.7837-5.3347-8.1662-6.4341-28.13.1419-28.13.1419L316.1008,472.42Z"/><path class="o" d="M364.1279,450.2927s11.1126,15.8742,19.3478,19.0942,54.1524,10.3053,54.1524,10.3053-21.6043-18.2757-32.8345-22.8262S364.1279,450.2927,364.1279,450.2927Z"/><path class="p" d="M650.8549,471.0568s-47.7076,4.8641-59.542,8.85-10.3551,10.5705-10.3551,10.5705l-32.5447,3.631s-13.41,2.227-14.4713,6.19-35.0854,4.7466-45.4405,4.7977-80.6221,16.2135-80.6221,16.2135H650.8549Z"/><path class="n" d="M199.4933,433.6306s-5.0929-9.1975-8.9126-9.8-10.1859,1.0458-10.1859,1.0458-5.73-7.3916-11.4591-7.8411-11.4591-1.3648-11.4591-1.3648-7.6394-5.5333-10.1859-5.7839-10.8225,9.4143-10.8225,9.4143Z"/><path class="q" d="M186.2835,433.6306s-8.43-15.2792-15.3781-16.1828-6.1077,5.5584-6.1077,5.5584-5.4772.3117-7.06,1.1306c-1.2456.6445-2.967,5.3455-2.967,5.3455s7.6394,4.1455,9.0718,4.1484S188.3941,437.114,186.2835,433.6306Z"/><path class="r" d="M506.9794,456.7186c-4.7952-1.3956-25.4647-10.7965-32.4675-11.295s-31.1943,6.2927-33.7407,7.1038,17.8252,6.0871,26.7379,6.5487S510.9731,457.8809,506.9794,456.7186Z"/><path class="s" d="M436.117,444.9653c-2.1308-2.786-9.161-7.4831-10.5852-7.5165s-7.473-.2866-7.473-.2866l-2.9739,3.57s-4.96-.8286-6.7662-.113a24.6139,24.6139,0,0,0-4.2556,2.5176s12.9953,2.6446,16.5526,2.6755S436.117,444.9653,436.117,444.9653Z"/><path class="t" d="M319.0259,403.4237c1.0419-5.7657-3.5856-8.3931-3.5856-10.5932s-12.503-9.4517-12.503-9.4517,2.0838-5.8651-4.1677-9.2712-46.53,7.6374-46.53,7.6374l-10.4289,8.8839-21.88,6.4877s-13.8923,9.7275-15.9761,12.4913,50.0247,9.2085,63.5573,9.9917c39.593,2.2915,103.15-2.01,103.15-2.01l-30.2158-8.8485Z"/><path class="n" d="M280.2684,138.8653c2.5011,0,4.5289-1.7207,4.5289-3.8436h0a3.8421,3.8421,0,0,0-2.5455-3.4552l-28.0706-15.551a11.09,11.09,0,0,0-10.528,0l-28.0709,15.551a3.8416,3.8416,0,0,0-2.545,3.4552v0c0,2.1227,2.0275,3.8434,4.5286,3.8434h1.9916V153.7c-3.6012,0-6.52,2.4778-6.52,5.5341v.1865a5.3372,5.3372,0,0,0,2.7617,4.5219l7.5191,6.1541L213.0373,355.574h71.76L274.516,170.0969l7.5193-6.1541a5.3372,5.3372,0,0,0,2.7619-4.5219v-.1865c0-3.0563-2.92-5.5341-6.5205-5.5341V138.8653Z"/><path class="u" d="M778.837,76.1357V199.3369a2.0019,2.0019,0,0,1-2.3325,1.7722l-508.238-47.8183a1.9194,1.9194,0,0,1-1.8693-1.7722v-9.56a1.903,1.903,0,0,1,1.7841-1.7626l508.238-65.823A2.0159,2.0159,0,0,1,778.837,76.1357Z"/><path class="v" d="M-278.12,209.2934V98.6642c0-1.0759,1.4413-1.9067,3.0672-1.7683l508.9515,43.3292c1.3543.1152,2.3681.8721,2.3681,1.7683v9.62c0,.8676-.9519,1.6094-2.2552,1.757L-274.94,211.0506C-276.6008,211.2387-278.12,210.4-278.12,209.2934Z"/><rect class="w" x="242.7112" y="140.5734" width="17.3568" height="13.4059" rx="2.5426" ry="2.5426"/></g></g></svg>